<?xml version="1.0" encoding="utf-8"?>
<!-- Generator: Adobe Illustrator 15.1.0, SVG Export Plug-In . SVG Version: 6.00 Build 0)  -->
<!DOCTYPE svg PUBLIC "-//W3C//DTD SVG 1.1//EN" "http://www.w3.org/Graphics/SVG/1.1/DTD/svg11.dtd">
<svg version="1.1" id="Vrstva_1" xmlns="http://www.w3.org/2000/svg" xmlns:xlink="http://www.w3.org/1999/xlink" x="0px" y="0px"
	 width="430px" height="213px" viewBox="0 0 430 213" enable-background="new 0 0 430 213" xml:space="preserve">
<g opacity="0.53">
	<path fill="#F2F2F2" d="M15.723,131.021c-0.298,0.1-0.499,0-0.597-0.299c-0.101-0.298-0.126-0.597-0.075-0.896
		c0.049-0.298,0.198-0.545,0.448-0.746c0.247-0.198,0.571-0.198,0.97,0c-1.294-1.59-2.115-3.033-2.462-4.327
		c-0.35-1.292-1.019-2.884-2.015-4.774c0.298-0.299,0.499-0.721,0.597-1.269c0.101-0.546,0.224-1.068,0.373-1.567
		c0.149-0.496,0.35-0.869,0.597-1.119c0.247-0.247,0.571-0.172,0.97,0.225c-0.2-1.094-0.2-1.989,0-2.687
		c0.198-0.694,0.422-1.343,0.671-1.939c0.248-0.597,0.422-1.194,0.522-1.791c0.098-0.597-0.051-1.292-0.448-2.089
		c1.889-2.586,3.134-5.396,3.73-8.431c0.597-3.033,0.944-5.794,1.044-8.282c0.896-0.896,1.665-2.089,2.313-3.581
		c0.646-1.492,1.119-3.033,1.417-4.626c0.299-1.59,0.448-3.156,0.448-4.7c0-1.541-0.2-2.761-0.597-3.656
		c0.098-0.396,0.322-0.62,0.671-0.671c0.348-0.049,0.77-0.023,1.269,0.074c0.695-3.978,1.168-8.405,1.417-13.28
		c0.247-4.873,0.746-9.573,1.492-14.101c0.746-4.526,1.963-8.506,3.656-11.938c1.69-3.432,4.376-5.645,8.058-6.641
		c0.695,2.488,1.616,4.677,2.76,6.566c1.143,1.891,2.388,3.73,3.73,5.521c1.343,1.791,2.709,3.581,4.104,5.372
		c1.392,1.791,2.686,3.782,3.88,5.969c-0.1,2.29-0.324,4.924-0.671,7.909c-0.35,2.984-0.797,6.02-1.343,9.102
		c-0.548,3.085-1.096,6.069-1.641,8.954c-0.548,2.886-1.07,5.322-1.567,7.312c0.098,0.499,0.448,0.82,1.044,0.97
		s0.695,0.723,0.298,1.716c2.884-0.694,5.894-1.366,9.028-2.015c3.134-0.646,6.216-1.291,9.251-1.939
		c3.034-0.646,6.018-1.418,8.953-2.313c2.933-0.896,5.694-1.989,8.282-3.283c0.597-4.775,1.343-9.499,2.238-14.176
		c0.896-4.675,0.993-9.401,0.298-14.176c0.597-0.497,1.094-1.094,1.492-1.791c0.396-0.695,0.994-1.143,1.791-1.343
		c-0.597-2.287-0.847-4.7-0.746-7.237c0.098-2.537,0.522-4.899,1.268-7.088c0.746-2.187,1.865-4.104,3.357-5.745
		s3.332-2.709,5.521-3.208c1.292,1.891,2.436,3.931,3.432,6.118c0.993,2.189,1.989,4.402,2.984,6.64
		c0.993,2.238,2.063,4.353,3.208,6.342c1.143,1.991,2.611,3.682,4.402,5.074c0.298,3.483,0.545,7.039,0.746,10.669
		c0.198,3.633,0.347,7.387,0.448,11.266c-0.896,4.477-1.917,8.83-3.059,13.057c-1.145,4.229-1.965,8.729-2.462,13.504
		c-0.797,0.896-1.443,1.966-1.94,3.208c-0.499,1.245-0.97,2.488-1.417,3.73c-0.448,1.245-0.97,2.463-1.567,3.656
		c-0.597,1.193-1.343,2.189-2.238,2.984c0.396,1.395,0.471,2.712,0.224,3.954c-0.25,1.245,0.075,2.712,0.97,4.402
		c0.198,3.084-0.175,5.646-1.119,7.685c-0.947,2.04-2.238,3.782-3.88,5.223c-1.642,1.443-3.532,2.588-5.67,3.432
		c-2.14,0.847-4.253,1.618-6.342,2.313c-0.996-0.597-1.917-1.217-2.761-1.865c-0.846-0.646-1.865-1.119-3.059-1.418l0.746-1.343
		c-1.991-1.989-3.708-4.104-5.148-6.342c-1.443-2.238-2.115-4.799-2.014-7.685c0-0.099,0.098-0.77,0.298-2.015
		c0.198-1.243,0.422-2.561,0.671-3.954c0.247-1.393,0.497-2.71,0.746-3.954c0.247-1.243,0.373-1.915,0.373-2.015
		c-2.786,0.298-5.67,0.946-8.655,1.939c-2.984,0.996-5.894,2.115-8.729,3.357c-2.835,1.245-5.472,2.537-7.909,3.88
		c-2.439,1.343-4.402,2.462-5.894,3.357c0,0.299-0.25,1.145-0.746,2.537c-0.499,1.394-1.096,2.86-1.791,4.401
		c-0.697,1.544-1.469,2.91-2.313,4.104c-0.847,1.194-1.716,1.742-2.611,1.642c0.198,0.499,0.396,0.872,0.597,1.119
		c0.198,0.249,0.198,0.723,0,1.418c-1.693,0.499-3.208,1.145-4.551,1.939c-1.343,0.795-2.711,1.467-4.104,2.015
		c-1.394,0.545-2.91,0.795-4.551,0.746c-1.641-0.052-3.607-0.672-5.894-1.865c0-0.695-0.298-1.317-0.896-1.865
		c-0.597-0.546-1.219-1.02-1.865-1.418c-0.648-0.396-1.219-0.746-1.716-1.044C15.97,131.617,15.723,131.318,15.723,131.021z"/>
	<path fill="#F2F2F2" d="M111.754,121.918l1.94-1.492l0.149-3.134c2.485-6.066,5.048-11.886,7.685-17.459
		c2.635-5.569,5.396-11.289,8.282-17.16c0.896-1.888,1.814-3.779,2.761-5.67c0.944-1.889,1.865-3.829,2.76-5.819
		c-0.1-0.396-0.149-0.821-0.149-1.269s0.098-0.97,0.298-1.567c1.392-1.989,2.511-3.779,3.357-5.372
		c0.844-1.59,1.665-3.232,2.462-4.924c0.896-1.989,1.865-3.978,2.91-5.969c1.044-1.989,2.362-3.929,3.954-5.82l1.044-1.492
		l1.642,0.149c0.396-0.198,0.821-0.373,1.268-0.522c0.448-0.149,1.019-0.224,1.716-0.224l2.686,0.448
		c3.283-1.492,6.192-3.656,8.729-6.491c2.537-2.835,5.097-6.242,7.685-10.222l1.791-2.537l2.388,1.492
		c0.497,0.298,1.292,0.597,2.387,0.896c1.094,0.298,2.238,0.648,3.432,1.044c2.089,0.499,4.127,1.07,6.118,1.716
		c1.989,0.648,3.53,1.518,4.625,2.611l0.746,1.343c0.198,1.096,0.373,2.089,0.522,2.984c0.149,0.895,0.322,1.791,0.522,2.686
		c0.396,2.089,0.746,4.155,1.045,6.192c0.298,2.04,0.497,4.304,0.597,6.79c0.497,1.991,0.97,4.005,1.417,6.043
		c0.448,2.04,0.87,4.054,1.269,6.043c0.497,2.886,1.044,5.647,1.641,8.281c0.597,2.637,1.392,5.148,2.388,7.536
		c0.993,0,1.59,0.051,1.791,0.148c1.194-0.496,2.586-0.795,4.178-0.895l1.94-0.149l0.597,1.79c0.198,0.299,0.447,0.598,0.746,0.896
		c0.298,0.299,0.646,0.597,1.044,0.896c1.591,0.101,2.761,0.425,3.507,0.97c0.746,0.548,1.366,1.07,1.865,1.567
		c0.198,0.2,0.447,0.424,0.746,0.671c0.299,0.25,0.546,0.425,0.746,0.522l2.687,1.045l-1.492,2.835
		c-1.097,2.089-2.761,4.129-4.999,6.118c-2.238,1.991-4.752,3.632-7.536,4.924c0.198,0.697,0.322,1.343,0.373,1.94
		c0.049,0.597,0.172,1.294,0.373,2.089c0.396,1.991,0.72,4.055,0.97,6.192c0.247,2.141,0.224,4.353-0.075,6.641
		c-0.996,2.588-2.164,4.9-3.506,6.938c-1.343,2.04-2.936,3.88-4.775,5.521c-1.842,1.642-3.905,2.984-6.192,4.029
		c-2.29,1.045-4.677,1.616-7.163,1.716c-1.394-0.298-2.413-0.648-3.059-1.044c-0.648-0.396-1.219-0.796-1.716-1.194
		c-0.797-0.597-1.443-0.993-1.94-1.193l-1.94-0.896l0.597-2.238c0.298-0.795,0.272-1.492-0.075-2.089
		c-0.35-0.597-1.07-1.393-2.164-2.388c-0.399-0.299-0.746-0.62-1.045-0.97c-0.298-0.348-0.648-0.721-1.044-1.119l-2.984-3.433
		l4.924-1.343c2.984-0.795,4.973-1.813,5.969-3.059c0.993-1.243,1.392-3.456,1.194-6.641c-2.488-0.496-4.528-0.571-6.118-0.224
		c-1.592,0.35-3.185,0.723-4.775,1.119c-2.29,0.597-4.528,1.119-6.715,1.566c-2.189,0.448-4.577,0.672-7.163,0.672
		c-1.693,0-3.483-0.149-5.372-0.447l-1.641-0.149l-0.448-1.642c0-0.198-0.126-0.422-0.373-0.672
		c-0.25-0.247-0.473-0.471-0.671-0.671c-0.499-0.597-1.096-1.393-1.791-2.388c-0.697-0.993-0.847-2.238-0.448-3.73
		c-0.697-1.094-1.096-2.238-1.194-3.433c-0.399,0.798-0.723,1.567-0.97,2.313c-0.25,0.746-0.474,1.469-0.672,2.164l-0.597,1.939
		l-1.94,0.299c-0.2,0.2-0.373,0.498-0.522,0.895c-0.149,0.399-0.175,0.697-0.075,0.896l0.597,1.642l-1.492,1.343
		c-0.2,0.299-0.448,0.548-0.746,0.746c-0.298,0.2-0.548,0.398-0.746,0.597c-0.2,1.096-0.473,2.141-0.821,3.134
		c-0.35,0.996-0.723,1.991-1.119,2.984c-0.499,1.593-0.97,3.134-1.417,4.626s-0.671,2.984-0.671,4.477l-0.597,1.939
		c-0.499,0.798-1.119,1.395-1.865,1.791c-0.746,0.398-1.469,0.746-2.164,1.045c-0.996,0.398-1.692,0.797-2.089,1.193l-0.448,1.939
		l-2.238,0.299c-1.294,0.299-2.215,0.497-2.761,0.597c-0.548,0.098-1.17,0.149-1.865,0.149l-1.939-0.149
		c-1.194-1.193-2.164-2.112-2.91-2.761c-0.746-0.646-1.618-1.217-2.611-1.716l-0.895-1.193c-0.399-0.795-0.646-1.516-0.746-2.164
		c-0.098-0.646-0.247-1.317-0.448-2.015c-0.198-1.291-0.497-2.187-0.896-2.686L111.754,121.918z M159.355,83.121
		c-1.394,1.991-2.737,4.08-4.029,6.267c0.695-0.098,1.366-0.148,2.014-0.148c0.646,0,1.317-0.049,2.015-0.149
		c3.481-0.198,6.715-0.448,9.699-0.746c2.984-0.299,6.216-0.795,9.699-1.492c-0.797-3.68-1.667-7.436-2.611-11.266
		c-0.947-3.829-1.965-7.685-3.059-11.564l-0.746,1.492c-2.488,2.686-4.875,5.572-7.163,8.655c-2.29,3.084-4.178,6.02-5.67,8.804
		L159.355,83.121z"/>
	<path fill="#F2F2F2" d="M244.95,122.067c-0.996,0.797-1.593,1.816-1.791,3.059c-0.2,1.245-0.447,2.462-0.746,3.656
		c-0.298,1.193-0.82,2.215-1.566,3.059c-0.746,0.847-2.065,1.22-3.954,1.119c-0.399,0.499-0.474,0.798-0.225,0.896
		c0.248,0.101,0.472,0.548,0.672,1.343c-1.395-0.198-2.388-0.098-2.984,0.299c-0.597,0.398-1.343,0.694-2.238,0.896
		c-2.289-0.695-4.204-1.964-5.745-3.806c-1.543-1.84-2.887-3.854-4.028-6.043c-1.146-2.188-2.141-4.426-2.984-6.715
		c-0.847-2.287-1.717-4.276-2.611-5.969c0-0.396,0.175-0.571,0.521-0.522c0.351,0.051,0.672,0.074,0.971,0.074
		c-0.497-0.993-0.87-2.112-1.119-3.357c-0.247-1.242-0.721-2.262-1.418-3.059c2.884-6.167,5.969-12.609,9.252-19.324
		c3.282-6.715,6.589-13.527,9.923-20.443c3.332-6.913,6.663-13.877,9.997-20.891c3.332-7.013,6.54-13.901,9.625-20.667
		c2.784,0.996,5.495,2.164,8.133,3.507c2.635,1.343,5.048,2.91,7.237,4.7c2.187,1.791,4.052,3.856,5.596,6.193
		c1.541,2.338,2.56,4.999,3.059,7.983c-0.2,0.597-0.447,0.797-0.746,0.597c-0.299-0.198-0.548-0.098-0.746,0.298
		c0.497,0.597,0.77,1.021,0.82,1.269c0.05,0.25,0.023,0.499-0.074,0.746c-0.101,0.25-0.149,0.573-0.149,0.97
		c0,0.399,0.247,0.947,0.746,1.642c-0.499-0.098-0.846-0.023-1.044,0.224c-0.201,0.25-0.548,0.275-1.045,0.075
		c0.497,1.394,0.646,2.488,0.447,3.283c-0.2,0.797-0.499,1.518-0.895,2.164c-0.399,0.648-0.724,1.343-0.971,2.089
		c-0.249,0.746-0.175,1.767,0.225,3.059c-0.399,0-0.672,0.074-0.821,0.224s-0.275,0.324-0.373,0.522
		c-0.1,0.2-0.224,0.373-0.373,0.522c-0.149,0.149-0.424,0.175-0.82,0.075c0.298,2.588,0.396,5.199,0.298,7.834
		c-0.1,2.637-0.2,5.323-0.298,8.058c-0.101,2.737-0.101,5.547,0,8.431c0.098,2.887,0.496,5.871,1.193,8.953
		c4.276-2.485,7.734-5.719,10.371-9.699c2.635-3.978,4.724-8.404,6.267-13.28c1.542-4.873,2.735-10.095,3.582-15.668
		c0.844-5.57,1.716-11.24,2.611-17.011c1.093-1.094,1.963-2.437,2.611-4.029c0.646-1.59,1.193-3.232,1.641-4.924
		c0.448-1.69,0.896-3.406,1.344-5.148c0.447-1.74,1.067-3.306,1.865-4.701c1.79,0.201,3.306,0.723,4.551,1.567
		c1.243,0.846,2.411,1.791,3.507,2.835c1.094,1.045,2.238,2.015,3.432,2.91c1.194,0.895,2.687,1.492,4.477,1.791
		c1.393,1.991,2.687,3.905,3.88,5.745c1.194,1.842,1.989,3.906,2.388,6.193c-0.597,0.996-1.045,2.089-1.343,3.283
		c-0.299,1.194-0.623,2.388-0.97,3.582c-0.351,1.193-0.821,2.29-1.418,3.283c-0.597,0.996-1.443,1.842-2.537,2.537
		c-0.298,2.984-0.746,5.771-1.343,8.356c-0.597,2.588-1.145,5.125-1.642,7.61c-0.499,2.488-0.946,5.074-1.343,7.759
		c-0.398,2.687-0.548,5.622-0.447,8.804c-0.896,2.887-1.892,5.846-2.984,8.879c-1.096,3.036-1.892,5.846-2.388,8.431
		c-1.891,1.492-3.383,3.334-4.477,5.521c-1.096,2.189-2.238,4.379-3.433,6.565c-0.498,0.398-0.797,0.474-0.895,0.224
		c-0.101-0.247-0.548-0.422-1.344-0.521c0.099,0.895-0.074,1.469-0.521,1.716c-0.448,0.249-0.425,0.97,0.074,2.163
		c-1.692,0.798-3.185,1.842-4.477,3.134c-1.294,1.294-2.712,2.488-4.253,3.581c-1.543,1.097-3.334,1.816-5.372,2.164
		c-2.04,0.35-4.7-0.074-7.982-1.269c-4.876-3.581-9.252-7.708-13.132-12.385c-3.88-4.675-6.964-10.196-9.251-16.563
		c-0.996,0.299-1.742,0.946-2.239,1.939c-0.498,0.996-0.946,2.04-1.343,3.134c-0.398,1.096-0.797,2.089-1.193,2.984
		c-0.398,0.896-0.996,1.343-1.791,1.343c-0.2,0.896-0.573,1.717-1.119,2.463c-0.548,0.746-1.07,1.492-1.566,2.238
		c-0.499,0.746-0.872,1.566-1.119,2.462C244.327,119.979,244.451,120.974,244.95,122.067z"/>
	<path fill="#F2F2F2" d="M337.213,137.735c-2.886-0.697-5.099-1.865-6.64-3.507c-1.544-1.642-2.687-3.581-3.433-5.819
		s-1.245-4.7-1.492-7.387c-0.249-2.686-0.521-5.47-0.82-8.356c0.396-1.291,0.919-2.387,1.566-3.282
		c0.646-0.896,0.919-2.139,0.821-3.73c1.094-3.183,2.089-6.268,2.984-9.252s1.492-6.066,1.79-9.252
		c0.598-0.895,1.194-1.492,1.791-1.79c0.795-5.671,0.896-11.49,0.299-17.459c-0.598-5.969-1.593-11.49-2.984-16.563
		c0.098-1.094,0.247-1.915,0.447-2.462c0.198-0.545,0.198-1.019,0-1.417c-0.2-0.896,0.098-1.343,0.896-1.343c0.795,0,1.59,0,2.388,0
		c0-1.791-0.324-3.556-0.971-5.297c-0.647-1.739-1.268-3.754-1.865-6.043c0.796-1.791,1.344-3.53,1.642-5.223
		c0.299-1.69,0.845-3.231,1.642-4.626c3.183,0.996,6.316,2.141,9.4,3.432c3.083,1.294,6.118,2.563,9.103,3.805
		c2.984,1.245,5.918,2.439,8.805,3.581c2.884,1.145,5.719,2.066,8.505,2.761c4.276,3.084,8.678,6.144,13.206,9.177
		c4.525,3.036,8.654,6.368,12.385,9.998c3.73,3.632,6.839,7.785,9.326,12.459c2.486,4.677,3.929,10.198,4.328,16.563
		c-0.201,0.597-0.35,1.096-0.448,1.492c-0.1,0.398-0.2,0.798-0.298,1.193c-0.101,0.399-0.149,0.847-0.149,1.344
		c0,0.499,0,1.193,0,2.089c-3.581,6.267-8.109,11.541-13.579,15.817c-5.472,4.278-11.44,8.058-17.906,11.341
		c-6.468,3.282-13.206,6.292-20.22,9.027C350.718,131.743,343.877,134.653,337.213,137.735z M351.837,53.128
		c-0.896,0-1.544,0.201-1.94,0.597c1.194,4.477,2.09,8.706,2.687,12.684c0.597,3.98,0.919,7.96,0.97,11.938
		c0.049,3.98-0.175,8.058-0.672,12.236c-0.498,4.178-1.193,8.706-2.089,13.579c1.292-0.099,2.437-0.348,3.433-0.746
		c0.993-0.396,2.014-0.845,3.059-1.343c1.045-0.497,2.138-0.944,3.283-1.344c1.143-0.396,2.462-0.646,3.954-0.746
		c0.396-0.795,0.919-1.417,1.566-1.865c0.646-0.447,1.218-0.918,1.717-1.417c2.485-0.993,4.973-2.038,7.461-3.134
		c2.485-1.094,4.774-2.336,6.863-3.73c2.09-1.392,3.978-2.984,5.671-4.775c1.69-1.79,3.082-3.929,4.178-6.416
		c-0.797-1.492-1.768-2.761-2.909-3.805c-1.146-1.044-2.339-2.089-3.582-3.134c-1.245-1.044-2.438-2.138-3.581-3.283
		c-1.145-1.143-2.065-2.462-2.761-3.954c-1.592-0.198-2.984-0.621-4.178-1.269c-1.193-0.646-2.339-1.292-3.432-1.94
		c-1.097-0.646-2.265-1.268-3.507-1.865c-1.245-0.597-2.712-0.944-4.402-1.044c-2.588-1.392-4.924-2.362-7.014-2.91
		C354.522,54.895,352.931,54.124,351.837,53.128z"/>
</g>
<g>
	<path fill="#FFFFFF" d="M273.766,134.304c0.226,0.254,0.339,0.551,0.339,0.89c0,0.452-0.24,0.848-0.721,1.187
		c-0.254,0.17-0.522,0.255-0.805,0.255c-0.424,0-0.834-0.212-1.229-0.636c-0.848-0.933-1.78-1.632-2.797-2.099
		c-1.018-0.466-2.148-0.699-3.392-0.699c-1.554,0-2.938,0.375-4.153,1.123c-1.216,0.749-2.155,1.802-2.818,3.158
		c-0.665,1.356-0.996,2.882-0.996,4.577c0,1.668,0.353,3.173,1.06,4.515c0.706,1.342,1.695,2.395,2.967,3.157
		s2.727,1.145,4.365,1.145c2.261,0,4.083-0.607,5.468-1.822c0.367-0.312,0.749-0.467,1.145-0.467c0.339,0,0.649,0.113,0.933,0.339
		c0.396,0.34,0.594,0.721,0.594,1.145c0,0.368-0.143,0.679-0.424,0.933c-2.035,1.894-4.606,2.84-7.715,2.84
		c-2.204,0-4.182-0.516-5.934-1.547s-3.13-2.444-4.133-4.238c-1.003-1.795-1.504-3.794-1.504-5.998c0-2.26,0.479-4.287,1.44-6.082
		c0.961-1.794,2.289-3.2,3.984-4.218c1.695-1.017,3.603-1.525,5.722-1.525C268.693,130.234,271.562,131.591,273.766,134.304z"/>
	<path fill="#FFFFFF" d="M293.792,130.658c0.691,0.312,1.038,0.749,1.038,1.313c0,0.17-0.015,0.297-0.042,0.382
		c-0.113,0.396-0.29,0.664-0.53,0.806s-0.572,0.212-0.996,0.212c-0.254,0-0.692-0.028-1.313-0.085
		c-0.227-0.028-0.565-0.042-1.018-0.042c-2.119,0-3.851,0.565-5.192,1.695s-2.013,2.6-2.013,4.407v12.674
		c0,0.509-0.142,0.904-0.424,1.187c-0.283,0.283-0.679,0.424-1.188,0.424c-0.508,0-0.904-0.141-1.187-0.424
		c-0.282-0.282-0.424-0.678-0.424-1.187v-19.964c0-0.509,0.142-0.903,0.424-1.187c0.282-0.282,0.679-0.424,1.187-0.424
		c0.509,0,0.904,0.142,1.188,0.424c0.282,0.283,0.424,0.678,0.424,1.187v1.865c0.819-1.187,1.864-2.104,3.137-2.755
		c1.271-0.649,2.642-0.975,4.111-0.975C292.16,130.192,293.099,130.348,293.792,130.658z"/>
	<path fill="#FFFFFF" d="M314.773,131.781c1.794,1.032,3.206,2.452,4.238,4.26c1.031,1.809,1.547,3.814,1.547,6.019v9.961
		c0,0.452-0.155,0.834-0.466,1.145c-0.312,0.311-0.707,0.466-1.187,0.466c-0.481,0-0.877-0.148-1.188-0.445
		s-0.466-0.685-0.466-1.165v-2.543c-0.989,1.355-2.247,2.423-3.772,3.199c-1.525,0.778-3.207,1.166-5.044,1.166
		c-2.147,0-4.09-0.516-5.828-1.547c-1.737-1.031-3.108-2.444-4.111-4.238c-1.003-1.795-1.504-3.794-1.504-5.998
		s0.515-4.21,1.547-6.019c1.031-1.808,2.443-3.228,4.238-4.26c1.794-1.031,3.793-1.547,5.997-1.547S312.979,130.75,314.773,131.781z
		 M313.142,149.731c1.299-0.763,2.323-1.815,3.072-3.157s1.124-2.847,1.124-4.515c0-1.667-0.375-3.172-1.124-4.514
		s-1.773-2.401-3.072-3.179c-1.3-0.777-2.755-1.166-4.366-1.166c-1.61,0-3.072,0.389-4.387,1.166
		c-1.313,0.777-2.346,1.837-3.094,3.179c-0.749,1.342-1.123,2.847-1.123,4.514c0,1.668,0.374,3.173,1.123,4.515
		c0.748,1.342,1.78,2.395,3.094,3.157c1.314,0.763,2.776,1.145,4.387,1.145C310.387,150.876,311.842,150.494,313.142,149.731z"/>
	<path fill="#FFFFFF" d="M332.913,125.36c-0.947,1.243-1.42,2.896-1.42,4.959v0.975h5.086c0.451,0,0.812,0.135,1.081,0.402
		c0.268,0.27,0.402,0.615,0.402,1.039c0,0.396-0.135,0.728-0.402,0.996c-0.27,0.269-0.63,0.402-1.081,0.402h-5.086v17.844
		c0,0.509-0.148,0.911-0.445,1.208s-0.714,0.445-1.25,0.445c-0.453,0-0.827-0.148-1.124-0.445c-0.296-0.297-0.444-0.699-0.444-1.208
		v-17.844h-2.713c-0.452,0-0.813-0.134-1.081-0.402s-0.402-0.601-0.402-0.996c0-0.424,0.134-0.77,0.402-1.039
		c0.269-0.268,0.629-0.402,1.081-0.402h2.713v-0.806c0-3.022,0.776-5.438,2.331-7.247c1.554-1.809,3.743-2.713,6.569-2.713
		c0.48,0,0.876,0.142,1.187,0.424s0.467,0.636,0.467,1.06s-0.156,0.777-0.467,1.06c-0.311,0.283-0.706,0.424-1.187,0.424
		C335.265,123.495,333.859,124.117,332.913,125.36z"/>
	<path fill="#FFFFFF" d="M353.745,150.833c0.281,0.312,0.424,0.707,0.424,1.188c0,0.452-0.17,0.834-0.509,1.145
		s-0.763,0.466-1.271,0.466h-0.891c-1.498,0-2.84-0.36-4.026-1.081s-2.112-1.695-2.776-2.925c-0.664-1.229-0.996-2.62-0.996-4.175
		v-11.316h-2.755c-0.452,0-0.813-0.134-1.081-0.402s-0.402-0.601-0.402-0.996c0-0.424,0.134-0.77,0.402-1.039
		c0.269-0.268,0.629-0.402,1.081-0.402h2.755v-6.569c0-0.48,0.148-0.876,0.445-1.188c0.297-0.311,0.685-0.466,1.166-0.466
		c0.479,0,0.875,0.155,1.187,0.466c0.311,0.312,0.466,0.707,0.466,1.188v6.569h4.79c0.451,0,0.812,0.135,1.08,0.402
		c0.269,0.27,0.403,0.615,0.403,1.039c0,0.396-0.135,0.728-0.403,0.996s-0.629,0.402-1.08,0.402h-4.79v11.316
		c0,1.441,0.424,2.622,1.271,3.539c0.848,0.919,1.936,1.378,3.264,1.378h1.145C353.095,150.367,353.462,150.522,353.745,150.833z"/>
	<path fill="#FFFFFF" d="M374.896,131.696c1.61,0.976,2.86,2.325,3.751,4.048c0.89,1.725,1.335,3.688,1.335,5.892
		c0,0.452-0.142,0.813-0.424,1.081c-0.283,0.269-0.65,0.402-1.103,0.402h-17.123c0.226,2.317,1.13,4.196,2.713,5.638
		c1.582,1.44,3.56,2.161,5.934,2.161c1.018,0,2.041-0.176,3.073-0.529c1.031-0.354,1.857-0.798,2.479-1.335
		c0.366-0.282,0.748-0.424,1.145-0.424c0.311,0,0.621,0.112,0.932,0.339c0.367,0.339,0.552,0.721,0.552,1.145
		c0,0.367-0.156,0.692-0.467,0.975c-0.933,0.791-2.119,1.448-3.561,1.971c-1.44,0.523-2.825,0.784-4.153,0.784
		c-2.261,0-4.281-0.501-6.062-1.505c-1.779-1.003-3.172-2.401-4.175-4.196c-1.003-1.794-1.504-3.821-1.504-6.082
		c0-2.289,0.473-4.33,1.42-6.124c0.946-1.795,2.26-3.193,3.941-4.196c1.681-1.003,3.596-1.505,5.743-1.505
		C371.434,130.234,373.284,130.722,374.896,131.696z M364.002,135.151c-1.413,1.328-2.274,3.08-2.585,5.255h15.513
		c-0.227-2.175-1.018-3.927-2.374-5.255c-1.355-1.328-3.094-1.992-5.213-1.992C367.195,133.159,365.415,133.823,364.002,135.151z"/>
	<path fill="#FFFFFF" d="M406.98,132.057v9.961c0,2.204-0.516,4.211-1.547,6.019c-1.032,1.809-2.444,3.229-4.238,4.26
		c-1.795,1.031-3.794,1.547-5.998,1.547s-4.203-0.516-5.997-1.547c-1.795-1.031-3.207-2.451-4.238-4.26
		c-1.032-1.808-1.547-3.814-1.547-6.019s0.501-4.203,1.504-5.998c1.003-1.794,2.374-3.206,4.111-4.238
		c1.738-1.031,3.681-1.547,5.828-1.547c1.837,0,3.519,0.389,5.044,1.166s2.783,1.844,3.772,3.199v-12.418
		c0-0.48,0.155-0.876,0.466-1.188c0.311-0.311,0.706-0.466,1.188-0.466c0.479,0,0.868,0.155,1.165,0.466
		c0.297,0.312,0.445,0.707,0.445,1.188v9.494C406.966,131.76,406.98,131.888,406.98,132.057z M399.563,149.71
		c1.299-0.776,2.323-1.836,3.072-3.179c0.749-1.342,1.124-2.847,1.124-4.514c0-0.48-0.015-0.833-0.043-1.06
		c-0.028-0.057-0.042-0.127-0.042-0.212c-0.283-2.204-1.208-4.013-2.776-5.426c-1.568-1.412-3.469-2.119-5.701-2.119
		c-1.61,0-3.072,0.382-4.387,1.145c-1.313,0.763-2.346,1.815-3.094,3.157c-0.749,1.343-1.123,2.848-1.123,4.515
		s0.374,3.172,1.123,4.514c0.748,1.343,1.78,2.402,3.094,3.179c1.314,0.777,2.776,1.166,4.387,1.166
		C396.809,150.876,398.264,150.487,399.563,149.71z"/>
</g>
<g>
	<path fill="#FFFFFF" d="M15.288,194.098c-0.145,0.145-0.328,0.217-0.551,0.217s-0.407-0.072-0.551-0.217s-0.216-0.328-0.216-0.551
		v-13.843c0-0.223,0.072-0.406,0.216-0.551s0.328-0.217,0.551-0.217h3.938c0.958,0,1.814,0.214,2.57,0.64
		c0.754,0.427,1.342,1.018,1.762,1.772c0.42,0.755,0.63,1.618,0.63,2.589c0,0.959-0.21,1.812-0.63,2.56
		c-0.42,0.749-1.008,1.333-1.762,1.753c-0.755,0.42-1.612,0.63-2.57,0.63h-3.17v4.667C15.505,193.77,15.433,193.953,15.288,194.098z
		 M20.467,186.96c0.525-0.295,0.935-0.705,1.23-1.23c0.295-0.524,0.443-1.122,0.443-1.792c0-0.682-0.147-1.289-0.443-1.821
		c-0.295-0.531-0.706-0.948-1.23-1.25c-0.525-0.302-1.123-0.453-1.792-0.453h-3.17v6.99h3.17
		C19.344,187.403,19.941,187.256,20.467,186.96z"/>
	<path fill="#FFFFFF" d="M35.563,183.643c0.322,0.145,0.482,0.348,0.482,0.61c0,0.079-0.007,0.138-0.02,0.177
		c-0.053,0.185-0.135,0.309-0.246,0.374c-0.112,0.066-0.266,0.099-0.463,0.099c-0.118,0-0.322-0.013-0.61-0.039
		c-0.105-0.013-0.263-0.02-0.473-0.02c-0.984,0-1.789,0.263-2.412,0.787c-0.624,0.525-0.935,1.208-0.935,2.048v5.888
		c0,0.236-0.066,0.42-0.197,0.551c-0.131,0.132-0.315,0.197-0.551,0.197s-0.42-0.065-0.551-0.197
		c-0.132-0.131-0.197-0.314-0.197-0.551v-9.274c0-0.236,0.065-0.42,0.197-0.551c0.131-0.132,0.315-0.197,0.551-0.197
		s0.42,0.065,0.551,0.197c0.131,0.131,0.197,0.314,0.197,0.551v0.866c0.38-0.551,0.866-0.978,1.457-1.279s1.227-0.453,1.91-0.453
		C34.805,183.426,35.241,183.498,35.563,183.643z"/>
	<path fill="#FFFFFF" d="M49.052,184.154c0.827,0.473,1.48,1.129,1.959,1.969c0.479,0.841,0.719,1.779,0.719,2.816
		s-0.236,1.972-0.709,2.806s-1.126,1.486-1.959,1.959c-0.834,0.473-1.769,0.709-2.806,0.709s-1.972-0.236-2.806-0.709
		c-0.834-0.473-1.487-1.125-1.959-1.959c-0.473-0.834-0.709-1.769-0.709-2.806s0.236-1.976,0.709-2.816
		c0.472-0.84,1.125-1.496,1.959-1.969c0.833-0.473,1.769-0.709,2.806-0.709S48.226,183.682,49.052,184.154z M44.219,185.355
		c-0.61,0.354-1.09,0.844-1.438,1.467c-0.348,0.624-0.522,1.329-0.522,2.117c0,0.774,0.174,1.474,0.522,2.097
		c0.348,0.624,0.827,1.112,1.438,1.467s1.29,0.531,2.038,0.531c0.761,0,1.444-0.177,2.048-0.531
		c0.604-0.354,1.076-0.843,1.417-1.467c0.341-0.623,0.512-1.322,0.512-2.097c0-0.788-0.171-1.493-0.512-2.117
		c-0.341-0.623-0.814-1.112-1.417-1.467c-0.604-0.354-1.287-0.531-2.048-0.531C45.508,184.824,44.829,185.001,44.219,185.355z"/>
	<path fill="#FFFFFF" d="M65.917,184.145c0.827,0.466,1.477,1.116,1.949,1.949c0.473,0.834,0.709,1.782,0.709,2.846v4.017
		c0,1.05-0.233,2.001-0.699,2.854s-1.112,1.526-1.939,2.019s-1.759,0.738-2.796,0.738c-1.011,0-1.91-0.19-2.698-0.571
		s-1.45-0.912-1.989-1.595c-0.118-0.131-0.177-0.282-0.177-0.453c0-0.196,0.091-0.367,0.275-0.512
		c0.131-0.092,0.276-0.138,0.433-0.138c0.118,0,0.236,0.029,0.354,0.089c0.118,0.059,0.21,0.135,0.276,0.227
		c0.394,0.498,0.893,0.886,1.496,1.161c0.604,0.276,1.287,0.414,2.048,0.414c0.735,0,1.401-0.181,1.999-0.542
		s1.066-0.866,1.408-1.516c0.341-0.65,0.512-1.395,0.512-2.235v-0.886c-0.394,0.748-0.952,1.336-1.674,1.763
		c-0.722,0.426-1.542,0.64-2.461,0.64c-1.024,0-1.939-0.233-2.747-0.699c-0.807-0.466-1.437-1.115-1.89-1.949
		c-0.453-0.834-0.679-1.775-0.679-2.825c0-1.063,0.236-2.012,0.709-2.846c0.472-0.833,1.125-1.483,1.959-1.949
		c0.833-0.466,1.769-0.699,2.806-0.699C64.151,183.445,65.09,183.679,65.917,184.145z M65.149,192.513
		c0.604-0.348,1.076-0.833,1.417-1.457c0.341-0.623,0.512-1.329,0.512-2.116c0-0.788-0.171-1.493-0.512-2.117
		c-0.341-0.623-0.814-1.112-1.417-1.467c-0.604-0.354-1.287-0.531-2.048-0.531c-0.774,0-1.464,0.177-2.067,0.531
		c-0.604,0.354-1.077,0.844-1.417,1.467c-0.342,0.624-0.512,1.329-0.512,2.117c0,0.787,0.17,1.493,0.512,2.116
		c0.341,0.624,0.813,1.109,1.417,1.457c0.604,0.348,1.293,0.521,2.067,0.521C63.862,193.034,64.545,192.86,65.149,192.513z"/>
	<path fill="#FFFFFF" d="M81.452,183.643c0.322,0.145,0.482,0.348,0.482,0.61c0,0.079-0.007,0.138-0.02,0.177
		c-0.053,0.185-0.135,0.309-0.246,0.374c-0.112,0.066-0.266,0.099-0.463,0.099c-0.118,0-0.322-0.013-0.61-0.039
		c-0.105-0.013-0.263-0.02-0.473-0.02c-0.984,0-1.789,0.263-2.412,0.787c-0.624,0.525-0.935,1.208-0.935,2.048v5.888
		c0,0.236-0.066,0.42-0.197,0.551c-0.131,0.132-0.315,0.197-0.551,0.197s-0.42-0.065-0.551-0.197
		c-0.132-0.131-0.197-0.314-0.197-0.551v-9.274c0-0.236,0.065-0.42,0.197-0.551c0.131-0.132,0.315-0.197,0.551-0.197
		s0.42,0.065,0.551,0.197c0.131,0.131,0.197,0.314,0.197,0.551v0.866c0.38-0.551,0.866-0.978,1.457-1.279s1.227-0.453,1.91-0.453
		C80.694,183.426,81.13,183.498,81.452,183.643z"/>
	<path fill="#FFFFFF" d="M94.469,184.125c0.748,0.453,1.329,1.08,1.742,1.88c0.414,0.801,0.621,1.714,0.621,2.737
		c0,0.21-0.066,0.378-0.197,0.502c-0.131,0.125-0.302,0.188-0.512,0.188h-7.955c0.104,1.076,0.524,1.949,1.26,2.618
		c0.735,0.67,1.654,1.005,2.757,1.005c0.473,0,0.948-0.082,1.427-0.246c0.479-0.164,0.863-0.371,1.152-0.621
		c0.17-0.131,0.348-0.196,0.531-0.196c0.145,0,0.289,0.053,0.433,0.157c0.171,0.157,0.256,0.335,0.256,0.532
		c0,0.17-0.072,0.321-0.217,0.452c-0.433,0.368-0.984,0.673-1.654,0.916s-1.313,0.364-1.93,0.364c-1.05,0-1.989-0.233-2.816-0.699
		c-0.827-0.466-1.474-1.115-1.939-1.949s-0.699-1.775-0.699-2.825c0-1.063,0.22-2.012,0.66-2.846
		c0.439-0.833,1.05-1.483,1.831-1.949c0.781-0.466,1.67-0.699,2.668-0.699C92.861,183.445,93.721,183.672,94.469,184.125z
		 M89.409,185.729c-0.657,0.617-1.057,1.431-1.201,2.441h7.207c-0.105-1.011-0.473-1.824-1.103-2.441s-1.438-0.926-2.422-0.926
		C90.892,184.804,90.065,185.112,89.409,185.729z"/>
	<path fill="#FFFFFF" d="M108.876,183.889c0.643,0.295,1.162,0.706,1.556,1.23c0.105,0.171,0.157,0.322,0.157,0.453
		c0,0.224-0.105,0.4-0.315,0.531c-0.092,0.066-0.216,0.099-0.374,0.099c-0.276,0-0.505-0.099-0.689-0.295
		c-0.644-0.735-1.523-1.104-2.639-1.104c-0.722,0-1.299,0.148-1.733,0.443c-0.433,0.296-0.649,0.667-0.649,1.112
		c0,0.473,0.203,0.851,0.61,1.133c0.407,0.282,1.129,0.509,2.166,0.679c1.404,0.236,2.408,0.62,3.012,1.152
		c0.604,0.531,0.906,1.191,0.906,1.979c0,0.604-0.181,1.143-0.542,1.614c-0.361,0.473-0.863,0.841-1.506,1.104
		s-1.372,0.394-2.186,0.394s-1.595-0.138-2.343-0.414c-0.749-0.275-1.353-0.662-1.812-1.161c-0.131-0.157-0.197-0.309-0.197-0.453
		c0-0.223,0.104-0.42,0.315-0.591c0.157-0.118,0.321-0.177,0.492-0.177c0.223,0,0.414,0.092,0.571,0.275
		c0.315,0.367,0.732,0.649,1.25,0.847s1.093,0.295,1.723,0.295c0.919,0,1.608-0.157,2.068-0.472
		c0.459-0.315,0.695-0.729,0.708-1.241c0-0.473-0.229-0.866-0.689-1.181c-0.459-0.315-1.188-0.552-2.186-0.709
		c-1.287-0.21-2.248-0.574-2.885-1.093s-0.955-1.146-0.955-1.881c0-0.958,0.371-1.699,1.113-2.225
		c0.741-0.525,1.67-0.788,2.786-0.788C107.478,183.445,108.233,183.593,108.876,183.889z"/>
	<path fill="#FFFFFF" d="M123.094,183.889c0.643,0.295,1.162,0.706,1.556,1.23c0.105,0.171,0.157,0.322,0.157,0.453
		c0,0.224-0.105,0.4-0.315,0.531c-0.092,0.066-0.216,0.099-0.374,0.099c-0.276,0-0.505-0.099-0.689-0.295
		c-0.644-0.735-1.523-1.104-2.639-1.104c-0.722,0-1.299,0.148-1.733,0.443c-0.433,0.296-0.649,0.667-0.649,1.112
		c0,0.473,0.203,0.851,0.61,1.133c0.407,0.282,1.129,0.509,2.166,0.679c1.404,0.236,2.408,0.62,3.012,1.152
		c0.604,0.531,0.906,1.191,0.906,1.979c0,0.604-0.181,1.143-0.542,1.614c-0.361,0.473-0.863,0.841-1.506,1.104
		s-1.372,0.394-2.186,0.394s-1.595-0.138-2.343-0.414c-0.749-0.275-1.353-0.662-1.812-1.161c-0.131-0.157-0.197-0.309-0.197-0.453
		c0-0.223,0.104-0.42,0.315-0.591c0.157-0.118,0.321-0.177,0.492-0.177c0.223,0,0.414,0.092,0.571,0.275
		c0.315,0.367,0.732,0.649,1.25,0.847s1.093,0.295,1.723,0.295c0.919,0,1.608-0.157,2.068-0.472
		c0.459-0.315,0.695-0.729,0.708-1.241c0-0.473-0.229-0.866-0.689-1.181c-0.459-0.315-1.188-0.552-2.186-0.709
		c-1.287-0.21-2.248-0.574-2.885-1.093s-0.955-1.146-0.955-1.881c0-0.958,0.371-1.699,1.113-2.225
		c0.741-0.525,1.67-0.788,2.786-0.788C121.696,183.445,122.451,183.593,123.094,183.889z"/>
	<path fill="#FFFFFF" d="M133.043,179.646c0.209,0.196,0.315,0.453,0.315,0.768c0,0.303-0.105,0.559-0.315,0.769
		c-0.21,0.21-0.466,0.314-0.768,0.314c-0.302,0-0.555-0.104-0.758-0.314s-0.305-0.466-0.305-0.769c0-0.314,0.105-0.571,0.315-0.768
		c0.21-0.197,0.466-0.296,0.768-0.296C132.583,179.35,132.833,179.448,133.043,179.646z M131.744,183.761
		c0.145-0.145,0.328-0.217,0.551-0.217s0.404,0.072,0.542,0.217s0.207,0.328,0.207,0.551v9.235c0,0.223-0.069,0.406-0.207,0.551
		s-0.318,0.217-0.542,0.217s-0.407-0.072-0.551-0.217s-0.217-0.328-0.217-0.551v-9.235
		C131.527,184.089,131.599,183.905,131.744,183.761z"/>
	<path fill="#FFFFFF" d="M149.157,184.233c0,0.078-0.02,0.171-0.059,0.275l-4.313,9.294c-0.17,0.341-0.42,0.512-0.748,0.512
		c-0.315,0-0.551-0.171-0.709-0.512l-4.371-9.274c-0.039-0.078-0.059-0.17-0.059-0.275c0-0.275,0.145-0.485,0.433-0.63
		c0.092-0.053,0.197-0.079,0.315-0.079c0.131,0,0.252,0.033,0.364,0.099c0.111,0.065,0.193,0.164,0.246,0.295l3.78,8.191
		l3.741-8.191c0.052-0.131,0.138-0.232,0.256-0.305s0.249-0.108,0.394-0.108c0.118,0,0.223,0.026,0.315,0.079
		C149.019,183.734,149.157,183.944,149.157,184.233z"/>
	<path fill="#FFFFFF" d="M161.676,184.125c0.748,0.453,1.329,1.08,1.742,1.88c0.414,0.801,0.621,1.714,0.621,2.737
		c0,0.21-0.066,0.378-0.197,0.502c-0.131,0.125-0.302,0.188-0.512,0.188h-7.955c0.104,1.076,0.524,1.949,1.26,2.618
		c0.735,0.67,1.654,1.005,2.757,1.005c0.473,0,0.948-0.082,1.427-0.246c0.479-0.164,0.863-0.371,1.152-0.621
		c0.17-0.131,0.348-0.196,0.531-0.196c0.145,0,0.289,0.053,0.433,0.157c0.171,0.157,0.256,0.335,0.256,0.532
		c0,0.17-0.072,0.321-0.217,0.452c-0.433,0.368-0.984,0.673-1.654,0.916s-1.313,0.364-1.93,0.364c-1.05,0-1.989-0.233-2.816-0.699
		c-0.827-0.466-1.474-1.115-1.939-1.949s-0.699-1.775-0.699-2.825c0-1.063,0.22-2.012,0.66-2.846
		c0.439-0.833,1.05-1.483,1.831-1.949c0.781-0.466,1.67-0.699,2.668-0.699C160.068,183.445,160.928,183.672,161.676,184.125z
		 M156.616,185.729c-0.657,0.617-1.057,1.431-1.201,2.441h7.207c-0.105-1.011-0.473-1.824-1.103-2.441s-1.438-0.926-2.422-0.926
		C158.099,184.804,157.272,185.112,156.616,185.729z"/>
	<path fill="#FFFFFF" d="M195.503,179.144c0.118,0.138,0.177,0.312,0.177,0.521c0,0.105-0.02,0.229-0.059,0.374l-4.017,13.626
		c-0.066,0.21-0.167,0.371-0.305,0.482c-0.138,0.111-0.299,0.167-0.482,0.167c-0.184,0-0.345-0.059-0.482-0.177
		c-0.138-0.118-0.233-0.27-0.286-0.453l-3.19-11.637l-3.17,11.617c-0.066,0.196-0.167,0.354-0.305,0.473s-0.299,0.177-0.482,0.177
		c-0.184,0-0.345-0.059-0.482-0.177s-0.233-0.27-0.286-0.453l-4.037-13.646c-0.039-0.145-0.059-0.263-0.059-0.354
		c0-0.223,0.065-0.403,0.197-0.541c0.131-0.138,0.302-0.207,0.512-0.207c0.368,0,0.617,0.197,0.749,0.591l3.406,11.873l3.229-11.538
		c0.04-0.145,0.128-0.263,0.266-0.354c0.138-0.092,0.292-0.138,0.462-0.138c0.17,0,0.322,0.046,0.453,0.138
		c0.131,0.092,0.223,0.217,0.275,0.374l3.249,11.538l3.426-11.972c0.105-0.341,0.354-0.512,0.749-0.512
		C195.221,178.937,195.385,179.006,195.503,179.144z"/>
	<path fill="#FFFFFF" d="M207.934,184.125c0.748,0.453,1.329,1.08,1.742,1.88c0.414,0.801,0.621,1.714,0.621,2.737
		c0,0.21-0.066,0.378-0.197,0.502c-0.131,0.125-0.302,0.188-0.512,0.188h-7.955c0.104,1.076,0.524,1.949,1.26,2.618
		c0.735,0.67,1.654,1.005,2.757,1.005c0.473,0,0.948-0.082,1.427-0.246c0.479-0.164,0.863-0.371,1.152-0.621
		c0.17-0.131,0.348-0.196,0.531-0.196c0.145,0,0.289,0.053,0.433,0.157c0.171,0.157,0.256,0.335,0.256,0.532
		c0,0.17-0.072,0.321-0.217,0.452c-0.433,0.368-0.984,0.673-1.654,0.916s-1.313,0.364-1.93,0.364c-1.05,0-1.989-0.233-2.816-0.699
		c-0.827-0.466-1.474-1.115-1.939-1.949s-0.699-1.775-0.699-2.825c0-1.063,0.22-2.012,0.66-2.846
		c0.439-0.833,1.05-1.483,1.831-1.949c0.781-0.466,1.67-0.699,2.668-0.699C206.325,183.445,207.185,183.672,207.934,184.125z
		 M202.873,185.729c-0.657,0.617-1.057,1.431-1.201,2.441h7.207c-0.105-1.011-0.473-1.824-1.103-2.441s-1.438-0.926-2.422-0.926
		C204.356,184.804,203.529,185.112,202.873,185.729z"/>
	<path fill="#FFFFFF" d="M216.387,184.115v-4.411c0-0.223,0.068-0.406,0.207-0.551c0.137-0.145,0.318-0.217,0.541-0.217
		s0.406,0.072,0.551,0.217s0.217,0.328,0.217,0.551v5.77c0.46-0.63,1.044-1.125,1.753-1.486s1.489-0.542,2.343-0.542
		c0.997,0,1.9,0.24,2.707,0.719c0.808,0.479,1.444,1.136,1.91,1.969c0.466,0.834,0.699,1.763,0.699,2.786
		c0,1.024-0.239,1.956-0.719,2.797c-0.479,0.84-1.136,1.499-1.969,1.979c-0.834,0.479-1.763,0.719-2.786,0.719
		c-1.024,0-1.953-0.239-2.786-0.719c-0.834-0.479-1.49-1.139-1.969-1.979c-0.48-0.841-0.719-1.772-0.719-2.797v-4.627
		C216.367,184.214,216.373,184.154,216.387,184.115z M221.841,193.034c0.748,0,1.428-0.18,2.038-0.541s1.089-0.854,1.438-1.477
		c0.348-0.624,0.521-1.322,0.521-2.098c0-0.774-0.174-1.473-0.521-2.097c-0.349-0.623-0.827-1.112-1.438-1.467
		s-1.29-0.531-2.038-0.531c-1.037,0-1.92,0.328-2.648,0.984s-1.159,1.496-1.29,2.521c0,0.039-0.006,0.072-0.02,0.098
		c-0.014,0.105-0.02,0.27-0.02,0.492c0,0.775,0.174,1.474,0.521,2.098c0.348,0.623,0.824,1.115,1.428,1.477
		S221.093,193.034,221.841,193.034z"/>
	<path fill="#FFFFFF" d="M254.919,193.547c0,0.21-0.075,0.391-0.227,0.541c-0.15,0.151-0.331,0.227-0.541,0.227
		c-0.342,0-0.584-0.157-0.729-0.473l-1.319-3.189h-7.62l-1.319,3.189c-0.105,0.315-0.342,0.473-0.709,0.473
		c-0.223,0-0.403-0.075-0.541-0.227c-0.138-0.15-0.207-0.331-0.207-0.541c0-0.132,0.02-0.243,0.06-0.335l5.788-13.744
		c0.145-0.354,0.395-0.531,0.749-0.531c0.354,0,0.597,0.177,0.729,0.531l5.809,13.764
		C254.893,193.323,254.919,193.429,254.919,193.547z M251.572,189.333l-3.269-7.896l-3.269,7.896H251.572z"/>
	<path fill="#FFFFFF" d="M268.865,184.164c0.833,0.479,1.489,1.139,1.969,1.979c0.479,0.84,0.719,1.771,0.719,2.796
		c0,1.023-0.233,1.952-0.699,2.786c-0.466,0.833-1.103,1.489-1.91,1.969c-0.807,0.479-1.71,0.719-2.707,0.719
		c-0.854,0-1.634-0.181-2.343-0.542c-0.709-0.36-1.293-0.856-1.753-1.486v5.77c0,0.223-0.072,0.406-0.216,0.551
		c-0.146,0.145-0.329,0.217-0.552,0.217c-0.224,0-0.403-0.072-0.541-0.217c-0.139-0.145-0.207-0.328-0.207-0.551v-4.411
		c-0.014-0.039-0.02-0.099-0.02-0.177v-4.627c0-1.024,0.239-1.956,0.719-2.796c0.479-0.841,1.135-1.5,1.969-1.979
		c0.833-0.479,1.762-0.719,2.786-0.719C267.103,183.445,268.031,183.686,268.865,184.164z M268.117,192.503
		c0.61-0.354,1.089-0.843,1.438-1.467c0.348-0.623,0.521-1.322,0.521-2.097s-0.174-1.474-0.521-2.098
		c-0.349-0.623-0.827-1.115-1.438-1.477c-0.61-0.36-1.29-0.541-2.038-0.541s-1.425,0.181-2.028,0.541
		c-0.604,0.361-1.08,0.854-1.428,1.477c-0.348,0.624-0.521,1.323-0.521,2.098c0,0.223,0.007,0.387,0.02,0.492
		c0.013,0.026,0.02,0.059,0.02,0.098c0.132,1.024,0.562,1.864,1.29,2.521c0.729,0.657,1.611,0.984,2.648,0.984
		C266.827,193.034,267.507,192.857,268.117,192.503z"/>
	<path fill="#FFFFFF" d="M286.175,184.164c0.833,0.479,1.489,1.139,1.969,1.979c0.479,0.84,0.719,1.771,0.719,2.796
		c0,1.023-0.233,1.952-0.699,2.786c-0.466,0.833-1.103,1.489-1.91,1.969c-0.807,0.479-1.71,0.719-2.707,0.719
		c-0.854,0-1.634-0.181-2.343-0.542c-0.709-0.36-1.293-0.856-1.753-1.486v5.77c0,0.223-0.072,0.406-0.216,0.551
		c-0.146,0.145-0.329,0.217-0.552,0.217c-0.224,0-0.403-0.072-0.541-0.217c-0.139-0.145-0.207-0.328-0.207-0.551v-4.411
		c-0.014-0.039-0.02-0.099-0.02-0.177v-4.627c0-1.024,0.239-1.956,0.719-2.796c0.479-0.841,1.135-1.5,1.969-1.979
		c0.833-0.479,1.762-0.719,2.786-0.719C284.412,183.445,285.341,183.686,286.175,184.164z M285.427,192.503
		c0.61-0.354,1.089-0.843,1.438-1.467c0.348-0.623,0.521-1.322,0.521-2.097s-0.174-1.474-0.521-2.098
		c-0.349-0.623-0.827-1.115-1.438-1.477c-0.61-0.36-1.29-0.541-2.038-0.541s-1.425,0.181-2.028,0.541
		c-0.604,0.361-1.08,0.854-1.428,1.477c-0.348,0.624-0.521,1.323-0.521,2.098c0,0.223,0.007,0.387,0.02,0.492
		c0.013,0.026,0.02,0.059,0.02,0.098c0.132,1.024,0.562,1.864,1.29,2.521c0.729,0.657,1.611,0.984,2.648,0.984
		C284.137,193.034,284.816,192.857,285.427,192.503z"/>
	<path fill="#FFFFFF" d="M295.328,179.144c0.145-0.138,0.321-0.207,0.532-0.207c0.223,0,0.403,0.069,0.541,0.207
		s0.207,0.318,0.207,0.541v11.224c0,0.564,0.114,1.023,0.345,1.378c0.229,0.354,0.521,0.532,0.876,0.532h0.492
		c0.197,0,0.354,0.068,0.473,0.206s0.177,0.318,0.177,0.542s-0.082,0.403-0.246,0.541s-0.377,0.207-0.64,0.207h-0.256
		c-0.801,0-1.454-0.318-1.959-0.955c-0.506-0.637-0.759-1.453-0.759-2.451v-11.224C295.111,179.462,295.184,179.281,295.328,179.144
		z"/>
	<path fill="#FFFFFF" d="M306.333,179.646c0.21,0.196,0.314,0.453,0.314,0.768c0,0.303-0.104,0.559-0.314,0.769
		s-0.467,0.314-0.769,0.314s-0.555-0.104-0.758-0.314s-0.305-0.466-0.305-0.769c0-0.314,0.104-0.571,0.314-0.768
		c0.21-0.197,0.466-0.296,0.769-0.296C305.873,179.35,306.123,179.448,306.333,179.646z M305.033,183.761
		c0.145-0.145,0.328-0.217,0.552-0.217c0.223,0,0.403,0.072,0.541,0.217s0.207,0.328,0.207,0.551v9.235
		c0,0.223-0.069,0.406-0.207,0.551s-0.318,0.217-0.541,0.217c-0.224,0-0.407-0.072-0.552-0.217s-0.217-0.328-0.217-0.551v-9.235
		C304.816,184.089,304.889,183.905,305.033,183.761z"/>
	<path fill="#FFFFFF" d="M322.106,185.336c0.104,0.118,0.157,0.256,0.157,0.413c0,0.21-0.111,0.395-0.335,0.552
		c-0.118,0.078-0.243,0.118-0.374,0.118c-0.196,0-0.388-0.099-0.571-0.296c-0.394-0.433-0.826-0.758-1.299-0.975
		c-0.473-0.216-0.998-0.324-1.575-0.324c-0.723,0-1.365,0.174-1.93,0.521s-1.001,0.837-1.31,1.467s-0.463,1.339-0.463,2.127
		c0,0.774,0.164,1.474,0.492,2.097c0.328,0.624,0.788,1.112,1.379,1.467c0.59,0.354,1.267,0.531,2.027,0.531
		c1.051,0,1.897-0.281,2.54-0.847c0.171-0.144,0.348-0.216,0.532-0.216c0.157,0,0.302,0.053,0.433,0.157
		c0.184,0.157,0.276,0.335,0.276,0.531c0,0.171-0.066,0.315-0.197,0.434c-0.945,0.88-2.14,1.319-3.584,1.319
		c-1.023,0-1.942-0.239-2.756-0.719c-0.814-0.479-1.454-1.136-1.92-1.969c-0.467-0.834-0.699-1.763-0.699-2.786
		c0-1.051,0.223-1.992,0.669-2.826c0.446-0.833,1.063-1.486,1.852-1.959c0.787-0.473,1.674-0.709,2.658-0.709
		C319.75,183.445,321.082,184.075,322.106,185.336z"/>
	<path fill="#FFFFFF" d="M336.084,184.164c0.834,0.479,1.49,1.139,1.969,1.979c0.479,0.84,0.719,1.771,0.719,2.796v4.627
		c0,0.21-0.072,0.387-0.216,0.531c-0.146,0.145-0.329,0.217-0.552,0.217c-0.224,0-0.407-0.069-0.552-0.207s-0.216-0.317-0.216-0.541
		v-1.182c-0.46,0.63-1.044,1.126-1.753,1.486c-0.709,0.361-1.49,0.542-2.343,0.542c-0.998,0-1.9-0.239-2.708-0.719
		c-0.807-0.479-1.443-1.136-1.909-1.969c-0.467-0.834-0.699-1.763-0.699-2.786c0-1.024,0.239-1.956,0.719-2.796
		c0.479-0.841,1.135-1.5,1.969-1.979c0.834-0.479,1.763-0.719,2.786-0.719C334.322,183.445,335.25,183.686,336.084,184.164z
		 M335.326,192.503c0.604-0.354,1.079-0.843,1.428-1.467c0.348-0.623,0.521-1.322,0.521-2.097s-0.174-1.474-0.521-2.098
		c-0.349-0.623-0.824-1.115-1.428-1.477c-0.604-0.36-1.28-0.541-2.028-0.541s-1.428,0.181-2.038,0.541
		c-0.61,0.361-1.09,0.854-1.438,1.477c-0.348,0.624-0.521,1.323-0.521,2.098s0.174,1.474,0.521,2.097
		c0.348,0.624,0.827,1.112,1.438,1.467s1.29,0.531,2.038,0.531S334.722,192.857,335.326,192.503z"/>
	<path fill="#FFFFFF" d="M350.375,193.015c0.131,0.145,0.197,0.328,0.197,0.552c0,0.21-0.079,0.387-0.236,0.531
		c-0.158,0.145-0.354,0.217-0.591,0.217h-0.414c-0.695,0-1.318-0.167-1.87-0.502s-0.981-0.788-1.29-1.358
		c-0.309-0.571-0.462-1.218-0.462-1.939v-5.258h-1.28c-0.21,0-0.378-0.062-0.502-0.187c-0.125-0.125-0.188-0.279-0.188-0.463
		c0-0.197,0.063-0.357,0.188-0.482c0.124-0.125,0.292-0.188,0.502-0.188h1.28v-3.052c0-0.223,0.068-0.406,0.206-0.551
		s0.318-0.217,0.542-0.217c0.223,0,0.406,0.072,0.551,0.217s0.217,0.328,0.217,0.551v3.052h2.225c0.21,0,0.378,0.063,0.503,0.188
		c0.124,0.125,0.187,0.285,0.187,0.482c0,0.184-0.063,0.338-0.187,0.463c-0.125,0.125-0.293,0.187-0.503,0.187h-2.225v5.258
		c0,0.669,0.197,1.218,0.591,1.644c0.394,0.427,0.898,0.64,1.516,0.64h0.532C350.073,192.798,350.244,192.871,350.375,193.015z"/>
	<path fill="#FFFFFF" d="M358.119,179.646c0.21,0.196,0.314,0.453,0.314,0.768c0,0.303-0.104,0.559-0.314,0.769
		s-0.467,0.314-0.769,0.314s-0.555-0.104-0.758-0.314s-0.305-0.466-0.305-0.769c0-0.314,0.104-0.571,0.314-0.768
		c0.21-0.197,0.466-0.296,0.769-0.296C357.659,179.35,357.909,179.448,358.119,179.646z M356.819,183.761
		c0.145-0.145,0.328-0.217,0.552-0.217c0.223,0,0.403,0.072,0.541,0.217s0.207,0.328,0.207,0.551v9.235
		c0,0.223-0.069,0.406-0.207,0.551s-0.318,0.217-0.541,0.217c-0.224,0-0.407-0.072-0.552-0.217s-0.217-0.328-0.217-0.551v-9.235
		C356.603,184.089,356.675,183.905,356.819,183.761z"/>
	<path fill="#FFFFFF" d="M372.986,184.154c0.827,0.473,1.48,1.129,1.959,1.969c0.479,0.841,0.719,1.779,0.719,2.816
		s-0.236,1.972-0.709,2.806c-0.472,0.834-1.125,1.486-1.959,1.959c-0.833,0.473-1.769,0.709-2.806,0.709s-1.973-0.236-2.806-0.709
		c-0.834-0.473-1.486-1.125-1.959-1.959s-0.709-1.769-0.709-2.806s0.236-1.976,0.709-2.816c0.473-0.84,1.125-1.496,1.959-1.969
		c0.833-0.473,1.769-0.709,2.806-0.709S372.159,183.682,372.986,184.154z M368.152,185.355c-0.61,0.354-1.09,0.844-1.438,1.467
		c-0.348,0.624-0.521,1.329-0.521,2.117c0,0.774,0.174,1.474,0.521,2.097c0.348,0.624,0.827,1.112,1.438,1.467
		s1.29,0.531,2.038,0.531c0.762,0,1.444-0.177,2.048-0.531s1.076-0.843,1.418-1.467c0.341-0.623,0.512-1.322,0.512-2.097
		c0-0.788-0.171-1.493-0.512-2.117c-0.342-0.623-0.814-1.112-1.418-1.467s-1.286-0.531-2.048-0.531
		C369.442,184.824,368.763,185.001,368.152,185.355z"/>
	<path fill="#FFFFFF" d="M389.752,184.017c0.742,0.394,1.323,0.968,1.743,1.723s0.63,1.657,0.63,2.708v5.119
		c0,0.21-0.072,0.387-0.217,0.531s-0.321,0.217-0.531,0.217c-0.224,0-0.407-0.072-0.552-0.217s-0.216-0.321-0.216-0.531v-5.119
		c0-1.169-0.325-2.058-0.975-2.668c-0.65-0.611-1.5-0.916-2.551-0.916c-0.643,0-1.224,0.125-1.742,0.374
		c-0.519,0.25-0.929,0.594-1.23,1.034c-0.302,0.439-0.453,0.929-0.453,1.467v5.828c0,0.224-0.068,0.403-0.207,0.541
		c-0.138,0.138-0.318,0.207-0.541,0.207c-0.224,0-0.407-0.069-0.552-0.207s-0.216-0.317-0.216-0.541v-9.255
		c0-0.223,0.071-0.406,0.216-0.551s0.328-0.217,0.552-0.217c0.223,0,0.403,0.072,0.541,0.217c0.139,0.145,0.207,0.328,0.207,0.551
		v0.67c0.434-0.485,0.958-0.866,1.575-1.142c0.617-0.276,1.286-0.414,2.009-0.414C388.174,183.426,389.011,183.623,389.752,184.017z
		"/>
	<path fill="#FFFFFF" d="M404.868,183.889c0.643,0.295,1.162,0.706,1.556,1.23c0.104,0.171,0.157,0.322,0.157,0.453
		c0,0.224-0.105,0.4-0.314,0.531c-0.093,0.066-0.217,0.099-0.374,0.099c-0.276,0-0.506-0.099-0.689-0.295
		c-0.644-0.735-1.523-1.104-2.639-1.104c-0.722,0-1.3,0.148-1.732,0.443c-0.434,0.296-0.65,0.667-0.65,1.112
		c0,0.473,0.204,0.851,0.61,1.133c0.407,0.282,1.129,0.509,2.166,0.679c1.404,0.236,2.409,0.62,3.013,1.152
		c0.604,0.531,0.906,1.191,0.906,1.979c0,0.604-0.181,1.143-0.542,1.614c-0.361,0.473-0.863,0.841-1.506,1.104
		c-0.644,0.263-1.372,0.394-2.186,0.394c-0.814,0-1.595-0.138-2.344-0.414c-0.748-0.275-1.352-0.662-1.812-1.161
		c-0.131-0.157-0.196-0.309-0.196-0.453c0-0.223,0.104-0.42,0.314-0.591c0.158-0.118,0.322-0.177,0.492-0.177
		c0.224,0,0.414,0.092,0.571,0.275c0.315,0.367,0.731,0.649,1.25,0.847s1.093,0.295,1.724,0.295c0.918,0,1.607-0.157,2.067-0.472
		c0.459-0.315,0.695-0.729,0.709-1.241c0-0.473-0.23-0.866-0.689-1.181c-0.46-0.315-1.188-0.552-2.186-0.709
		c-1.287-0.21-2.248-0.574-2.885-1.093s-0.955-1.146-0.955-1.881c0-0.958,0.371-1.699,1.112-2.225
		c0.742-0.525,1.671-0.788,2.786-0.788C403.471,183.445,404.225,183.593,404.868,183.889z"/>
</g>
<g opacity="0.7">
	<path fill="#FFFFFF" d="M13,150.5c0,1.381,1.119,2.5,2.5,2.5h233c1.381,0,2.5-1.119,2.5-2.5s-1.119-2.5-2.5-2.5h-233
		C14.119,148,13,149.119,13,150.5C13,150.5,13,149.119,13,150.5z"/>
</g>
</svg>
