<svg  width="290px" height="90px" viewBox="0 0 290 90">
<style type="text/css">
<![CDATA[
	.st0{fill:#525354;}
	.st1{fill:#D4D6D8;}
]]>
</style>
<g transform="matrix(1 0 0 1 78.3101 72.2095)">
	<path class="st1" d="M371.861,297.334c-1.652,1.305-7.221,5.83-9.223,5.83c-2.436,0-7.482-5.743-7.656-10.267
		c-0.348-10.876,22.273-22.013,32.366-22.273c4.002-0.087,5.655,3.132,5.655,4.176c0,1.044-2.262,1.914-3.045,2.175
		c1.653,0.696,2.523,1.653,2.523,3.567c0,2.784-7.57,8.875-7.57,12.964c0,1.479,1.306,2.088,2.697,2.088
		c3.654,0,8.614-4.438,12.355-6.961l0.695,3.219c-3.741,4.264-15.399,13.573-19.663,13.573c-2.871,0-4.176-2.088-4.176-4.611
		c0-2.784,2.088-7.396,3.219-9.745l-0.174-0.174L371.861,297.334z M361.333,295.072c0.087,0.435,0.435,2.001,1.74,1.74
		c1.74-0.348,4.438-0.087,21.664-17.488l-0.174-0.174C363.857,285.501,361.333,290.809,361.333,295.072z"/>
	<path class="st1" d="M440.768,286.023l0.695,3.828c-4.611,4.089-13.572,14.791-19.924,14.791c-3.307,0-4.873-2.784-4.873-5.742
		c0-5.221,4.699-10.963,7.482-14.965l-0.174-0.174c-5.047,3.741-9.482,8.266-13.398,13.312c-1.305,1.653-4.525,5.916-6.873,5.916
		c-3.829,0-4.786-5.481-4.873-8.439c-0.262-6.003,5.22-14.791,10.267-19.054c1.131-0.957,1.914-1.044,3.393-1.044
		c5.221,0.174,4.785,1.392,4.785,1.914c0,3.393-10.963,12.181-10.963,14.269c0,0.522,0.436,0.957,0.957,0.957
		c0.609,0,1.393-0.783,1.74-1.218c6.961-8.875,22.969-19.576,25.492-19.576c0.35,0,0.871,0.435,1.393,1.653
		c0.521,1.305,1.045,2.871,1.305,4.698c0,3.393-10.701,10.005-10.701,16.009c0,0.783,0.695,1.566,1.566,1.566
		c2.088,0,5.916-3.045,7.482-4.351L440.768,286.023z"/>
	<path class="st1" d="M474.871,276.366c-2.873,4.524-7.049,10.18-7.049,15.748c0,1.392,0.088,4.35,2.002,4.35
		c2.957,0,10.963-7.047,13.746-8.875l0.609,2.871c-4.09,4.524-13.051,13.661-19.402,13.661c-3.307,0-4.611-3.481-4.611-6.265
		c0-2.175,0.348-4.437,0.695-6.612c-3.045,2.61-11.137,11.049-15.051,11.049c-3.916,0-6.352-8.352-6.352-11.397
		c0-10.267,17.314-18.967,24.709-19.402c1.828-0.087,2.523,1.131,3.654,2.436c2.871-4.959,10.527-22.97,16.879-22.97
		c1.74,0,2.785,1.74,2.785,3.306c0,2.61-2.35,6.178-3.742,8.353L474.871,276.366z M447.115,292.723
		c-0.086,0.783,0.348,1.479,1.305,1.653c1.045,0.261,15.053-10.18,16.445-15.313C449.551,284.022,447.637,286.98,447.115,292.723z"
		/>
</g>
<g>
	<path class="st0" d="M465.351,289.448c0-2.379,0.531-4.274,1.593-5.685c1.063-1.412,2.504-2.117,4.326-2.117
		c2.067,0,3.644,0.816,4.729,2.45V275.5h1.686v21.75h-1.586l-0.071-2.039c-1.086,1.548-2.681,2.322-4.786,2.322
		c-1.766,0-3.188-0.71-4.27-2.131c-1.081-1.421-1.621-3.34-1.621-5.756V289.448z M467.063,289.745c0,1.954,0.393,3.495,1.176,4.623
		c0.783,1.128,1.888,1.692,3.313,1.692c2.086,0,3.568-0.92,4.446-2.761v-7.193c-0.878-1.992-2.351-2.988-4.418-2.988
		c-1.426,0-2.535,0.56-3.328,1.678C467.46,285.915,467.063,287.564,467.063,289.745z"/>
	<path class="st0" d="M488.077,297.533c-1.303,0-2.479-0.321-3.532-0.963s-1.872-1.536-2.457-2.684
		c-0.585-1.146-0.878-2.433-0.878-3.858v-0.609c0-1.473,0.285-2.799,0.856-3.979s1.366-2.107,2.386-2.782
		c1.02-0.675,2.125-1.013,3.314-1.013c1.859,0,3.334,0.635,4.425,1.904c1.09,1.27,1.636,3.004,1.636,5.204v0.949h-10.932v0.326
		c0,1.737,0.497,3.184,1.493,4.34c0.996,1.157,2.249,1.735,3.76,1.735c0.906,0,1.706-0.165,2.4-0.496
		c0.693-0.331,1.323-0.859,1.89-1.586l1.063,0.807C492.255,296.632,490.447,297.533,488.077,297.533z M487.767,283.09
		c-1.275,0-2.349,0.467-3.222,1.402s-1.404,2.19-1.593,3.767h9.189v-0.184c-0.047-1.473-0.467-2.671-1.26-3.597
		S489.05,283.09,487.767,283.09z"/>
	<path class="st0" d="M506.302,293.356c0-0.84-0.338-1.515-1.013-2.025s-1.692-0.909-3.052-1.196
		c-1.359-0.288-2.414-0.619-3.164-0.991c-0.751-0.373-1.308-0.829-1.671-1.367s-0.546-1.189-0.546-1.954
		c0-1.208,0.506-2.207,1.516-2.995c1.01-0.789,2.304-1.183,3.88-1.183c1.709,0,3.08,0.422,4.113,1.268
		c1.034,0.845,1.551,1.947,1.551,3.306h-1.699c0-0.897-0.375-1.643-1.126-2.237c-0.75-0.595-1.696-0.892-2.839-0.892
		c-1.114,0-2.009,0.248-2.684,0.743c-0.675,0.496-1.013,1.14-1.013,1.933c0,0.765,0.281,1.357,0.843,1.777
		c0.562,0.42,1.586,0.805,3.073,1.154c1.486,0.349,2.601,0.722,3.342,1.119s1.291,0.873,1.649,1.43s0.538,1.232,0.538,2.025
		c0,1.293-0.521,2.327-1.564,3.101s-2.405,1.161-4.086,1.161c-1.783,0-3.23-0.432-4.34-1.296c-1.109-0.863-1.664-1.956-1.664-3.278
		h1.699c0.066,0.991,0.484,1.763,1.254,2.315c0.77,0.553,1.786,0.829,3.051,0.829c1.181,0,2.134-0.26,2.861-0.779
		C505.938,294.805,506.302,294.149,506.302,293.356z"/>
	<path class="st0" d="M515.448,289.533l-1.939,1.869v5.848h-1.699V275.5h1.699v13.919l1.6-1.728l5.863-5.763h2.138l-6.499,6.457
		l7.065,8.864h-2.024L515.448,289.533z"/>
	<path class="st0" d="M528.646,278.006v3.922h3.172v1.388h-3.172v10.221c0,0.851,0.153,1.484,0.46,1.9s0.819,0.624,1.537,0.624
		c0.283,0,0.74-0.047,1.373-0.142l0.07,1.376c-0.443,0.158-1.047,0.238-1.813,0.238c-1.16,0-2.006-0.337-2.534-1.013
		c-0.528-0.675-0.793-1.668-0.793-2.98v-10.224h-2.817v-1.388h2.817v-3.922H528.646z"/>
	<path class="st0" d="M534.112,289.363c0-1.473,0.285-2.799,0.856-3.979s1.379-2.098,2.422-2.754
		c1.043-0.656,2.226-0.984,3.547-0.984c2.039,0,3.691,0.715,4.956,2.146c1.265,1.43,1.897,3.325,1.897,5.685v0.354
		c0,1.482-0.285,2.815-0.856,4c-0.571,1.185-1.376,2.098-2.414,2.74c-1.039,0.642-2.224,0.963-3.555,0.963
		c-2.029,0-3.68-0.715-4.949-2.146c-1.27-1.43-1.904-3.325-1.904-5.685V289.363z M535.812,289.83c0,1.832,0.475,3.335,1.423,4.51
		c0.949,1.176,2.192,1.763,3.731,1.763c1.529,0,2.769-0.587,3.717-1.763c0.949-1.175,1.424-2.726,1.424-4.651v-0.326
		c0-1.17-0.218-2.242-0.652-3.214c-0.434-0.972-1.043-1.725-1.826-2.259c-0.783-0.533-1.681-0.8-2.69-0.8
		c-1.511,0-2.742,0.592-3.696,1.777c-0.953,1.185-1.43,2.735-1.43,4.651V289.83z"/>
	<path class="st0" d="M563.607,289.745c0,2.388-0.528,4.283-1.586,5.686c-1.058,1.401-2.474,2.103-4.248,2.103
		c-2.096,0-3.7-0.736-4.814-2.209v7.816h-1.685v-21.212h1.571l0.085,2.167c1.104-1.633,2.705-2.45,4.801-2.45
		c1.831,0,3.269,0.694,4.312,2.082s1.564,3.313,1.564,5.777V289.745z M561.908,289.448c0-1.954-0.401-3.498-1.204-4.63
		c-0.802-1.133-1.921-1.699-3.355-1.699c-1.038,0-1.931,0.25-2.676,0.75c-0.746,0.5-1.317,1.227-1.714,2.181v7.349
		c0.406,0.878,0.986,1.548,1.741,2.011c0.756,0.462,1.647,0.694,2.677,0.694c1.426,0,2.537-0.569,3.335-1.707
		C561.51,293.259,561.908,291.609,561.908,289.448z"/>
</g>
<g>
	<path class="st0" d="M285.323,281.929l0.057,2.492c0.566-0.925,1.275-1.619,2.125-2.082s1.793-0.694,2.832-0.694
		c2.416,0,3.95,0.991,4.602,2.974c0.548-0.954,1.279-1.688,2.195-2.202c0.915-0.514,1.926-0.771,3.029-0.771
		c3.285,0,4.961,1.793,5.027,5.381v10.224h-1.699v-10.096c-0.01-1.369-0.305-2.384-0.885-3.044c-0.581-0.661-1.527-0.991-2.84-0.991
		c-1.217,0.019-2.246,0.413-3.086,1.183c-0.841,0.769-1.308,1.706-1.402,2.811v10.139h-1.699v-10.224
		c-0.01-1.312-0.318-2.292-0.928-2.938c-0.608-0.646-1.546-0.97-2.811-0.97c-1.066,0-1.982,0.305-2.747,0.913
		c-0.765,0.609-1.331,1.513-1.699,2.712v10.507h-1.699v-15.321H285.323z"/>
	<path class="st0" d="M308.547,289.363c0-1.473,0.285-2.799,0.856-3.979s1.379-2.098,2.422-2.754
		c1.043-0.656,2.226-0.984,3.547-0.984c2.039,0,3.691,0.715,4.956,2.146c1.265,1.43,1.897,3.325,1.897,5.685v0.354
		c0,1.482-0.285,2.815-0.856,4c-0.571,1.185-1.376,2.098-2.415,2.74c-1.038,0.642-2.223,0.963-3.554,0.963
		c-2.029,0-3.68-0.715-4.949-2.146c-1.27-1.43-1.904-3.325-1.904-5.685V289.363z M310.246,289.83c0,1.832,0.475,3.335,1.423,4.51
		c0.949,1.176,2.192,1.763,3.731,1.763c1.529,0,2.769-0.587,3.717-1.763c0.949-1.175,1.423-2.726,1.423-4.651v-0.326
		c0-1.17-0.217-2.242-0.65-3.214c-0.435-0.972-1.044-1.725-1.827-2.259c-0.783-0.533-1.681-0.8-2.69-0.8
		c-1.511,0-2.742,0.592-3.695,1.777c-0.954,1.185-1.431,2.735-1.431,4.651V289.83z"/>
	<path class="st0" d="M338.056,289.745c0,2.388-0.528,4.283-1.586,5.686c-1.057,1.401-2.478,2.103-4.262,2.103
		c-2.134,0-3.748-0.793-4.843-2.379l-0.071,2.096h-1.586V275.5h1.686v8.652c1.076-1.671,2.672-2.506,4.786-2.506
		c1.813,0,3.245,0.691,4.298,2.074c1.053,1.383,1.578,3.307,1.578,5.771V289.745z M336.356,289.448c0-2.02-0.392-3.58-1.175-4.68
		c-0.783-1.1-1.888-1.649-3.313-1.649c-1.086,0-2.006,0.267-2.762,0.8c-0.755,0.534-1.326,1.315-1.713,2.344v6.91
		c0.85,1.926,2.351,2.889,4.503,2.889c1.397,0,2.49-0.552,3.278-1.657S336.356,291.647,336.356,289.448z"/>
	<path class="st0" d="M341.694,277.504c0-0.319,0.104-0.589,0.313-0.81c0.207-0.22,0.49-0.331,0.85-0.331
		c0.358,0,0.644,0.11,0.856,0.331c0.212,0.221,0.318,0.49,0.318,0.81c0,0.319-0.106,0.586-0.318,0.802
		c-0.213,0.216-0.498,0.324-0.856,0.324c-0.359,0-0.643-0.108-0.85-0.324C341.799,278.09,341.694,277.823,341.694,277.504z
		 M343.691,297.25h-1.699v-15.321h1.699V297.25z"/>
	<path class="st0" d="M350.191,297.25h-1.699V275.5h1.699V297.25z"/>
	<path class="st0" d="M360.728,297.533c-1.303,0-2.48-0.321-3.533-0.963s-1.872-1.536-2.457-2.684
		c-0.585-1.146-0.878-2.433-0.878-3.858v-0.609c0-1.473,0.285-2.799,0.856-3.979s1.367-2.107,2.387-2.782
		c1.02-0.675,2.123-1.013,3.313-1.013c1.86,0,3.335,0.635,4.426,1.904c1.09,1.27,1.635,3.004,1.635,5.204v0.949h-10.932v0.326
		c0,1.737,0.498,3.184,1.494,4.34c0.996,1.157,2.249,1.735,3.76,1.735c0.906,0,1.706-0.165,2.4-0.496
		c0.693-0.331,1.324-0.859,1.891-1.586l1.062,0.807C364.904,296.632,363.097,297.533,360.728,297.533z M360.415,283.09
		c-1.273,0-2.348,0.467-3.221,1.402s-1.404,2.19-1.594,3.767h9.19v-0.184c-0.047-1.473-0.468-2.671-1.261-3.597
		S361.699,283.09,360.415,283.09z"/>
</g>
</svg>
