<?xml version="1.0" encoding="utf-8"?>
<!-- Generator: Adobe Illustrator 15.1.0, SVG Export Plug-In . SVG Version: 6.00 Build 0)  -->
<!DOCTYPE svg PUBLIC "-//W3C//DTD SVG 1.1//EN" "http://www.w3.org/Graphics/SVG/1.1/DTD/svg11.dtd">
<svg version="1.1"
	 id="svg2" xmlns:sodipodi="http://sodipodi.sourceforge.net/DTD/sodipodi-0.dtd" xmlns:rdf="http://www.w3.org/1999/02/22-rdf-syntax-ns#" xmlns:svg="http://www.w3.org/2000/svg" xmlns:cc="http://creativecommons.org/ns#" xmlns:dc="http://purl.org/dc/elements/1.1/" xmlns:inkscape="http://www.inkscape.org/namespaces/inkscape" inkscape:version="0.48.4 r9939" sodipodi:docname="pwa.svg"
	 xmlns="http://www.w3.org/2000/svg" xmlns:xlink="http://www.w3.org/1999/xlink" x="0px" y="0px" width="800px" height="440px"
	 viewBox="0 0 800 440" enable-background="new 0 0 800 440" xml:space="preserve">
<sodipodi:namedview  id="namedview12" inkscape:window-maximized="1" gridtolerance="10" inkscape:cy="299.77245" inkscape:zoom="0.71311476" objecttolerance="10" borderopacity="1" guidetolerance="10" bordercolor="#666666" showgrid="false" inkscape:cx="-18.868652" pagecolor="#ffffff" inkscape:current-layer="g4" inkscape:window-y="27" inkscape:window-x="0" inkscape:pageopacity="0" inkscape:pageshadow="2" inkscape:window-height="1145" inkscape:window-width="1920">
	</sodipodi:namedview>
<path id="path6" inkscape:connector-curvature="0" d="M574.62,320.7l21.378-54.06h61.725l-29.293-82.004l36.636-92.648L770,370.601
	h-77.386l-17.931-49.9H574.62z"/>
<path id="path8" inkscape:connector-curvature="0" opacity="0.6" fill="#FFFFFF" d="M508.601,370.602L620.935,91.989h-74.474
	l-76.844,180.046L414.975,91.99H357.73l-58.672,180.045l-41.377-82.043l-37.444,115.361l38.018,65.248h73.291l53.02-161.461
	l50.552,161.461L508.601,370.602L508.601,370.602z"/>
<path id="path10" inkscape:connector-curvature="0" d="M100.693,274.958h45.872c13.896,0,26.269-1.551,37.12-4.653l11.863-36.548
	l33.156-102.146c-2.526-4.004-5.411-7.79-8.652-11.357c-17.023-18.843-41.93-28.264-74.721-28.264H30v278.612h70.693V274.958
	L100.693,274.958z M161.412,156.086c6.649,6.692,9.974,15.647,9.974,26.867c0,11.306-2.924,20.272-8.771,26.899
	c-6.411,7.364-18.215,11.046-35.412,11.046h-26.509v-74.851h26.704C143.424,146.047,154.762,149.394,161.412,156.086
	L161.412,156.086z"/>
</svg>
