<?xml version="1.0" encoding="utf-8"?>
<!-- Generator: Adobe Illustrator 15.1.0, SVG Export Plug-In . SVG Version: 6.00 Build 0)  -->
<!DOCTYPE svg PUBLIC "-//W3C//DTD SVG 1.1//EN" "http://www.w3.org/Graphics/SVG/1.1/DTD/svg11.dtd">
<svg version="1.1" id="Vrstva_1" xmlns="http://www.w3.org/2000/svg" xmlns:xlink="http://www.w3.org/1999/xlink" x="0px" y="0px"
	 width="24px" height="21.917px" viewBox="0 0.583 24 21.917" enable-background="new 0 0.583 24 21.917" xml:space="preserve">
<g>
	<path d="M5.594,1.833h15.992c1.099,0,1.988,0.9,1.988,2l0.01,18l-3.997-4H5.594c-1.099,0-1.999-0.9-1.999-2v-12
		C3.595,2.733,4.495,1.833,5.594,1.833z"/>
	<g>
		<path fill="#FFFFFF" d="M7.59,9.833c0-0.55,0.45-1,1-1h10c0.55,0,1,0.45,1,1l0,0c0,0.55-0.45,1-1,1h-10
			C8.04,10.833,7.59,10.383,7.59,9.833L7.59,9.833z"/>
	</g>
	<g>
		<path fill="#FFFFFF" d="M15.59,12.833c0,0.55-0.45,1-1,1h-6c-0.55,0-1-0.45-1-1l0,0c0-0.55,0.45-1,1-1h6
			C15.14,11.833,15.59,12.283,15.59,12.833L15.59,12.833z"/>
	</g>
	<g>
		<path fill="#FFFFFF" d="M19.59,6.833c0,0.55-0.45,1-1,1h-10c-0.55,0-1-0.45-1-1l0,0c0-0.55,0.45-1,1-1h10
			C19.14,5.833,19.59,6.283,19.59,6.833L19.59,6.833z"/>
	</g>
</g>
<text transform="matrix(1 0 0 1 400 300)"><tspan x="0" y="0" font-family="'MyriadPro-Regular'" font-size="12">&lt;svg xmlns=&quot;http://www.w3.org/2000/svg&quot; xmlns:xlink=&quot;http://www.w3.org/1999/xlink&quot; x=&quot;0px&quot; y=&quot;0px&quot; class=&quot;icon&quot; version=&quot;1.1&quot; viewBox=&quot;0 0 24 24&quot; xml:space=&quot;preserve&quot;&gt;</tspan><tspan x="0" y="14.4" font-family="'MyriadPro-Regular'" font-size="12">    &lt;path d=&quot;M20,2H4C2.9,2,2.01,2.9,2.01,4L2,22l4-4h14c1.1,0,2-0.9,2-2V4C22,2.9,21.1,2,20,2z&quot; class=&quot;chat-boubble&quot;/&gt;</tspan><tspan x="0" y="28.8" font-family="'MyriadPro-Regular'" font-size="12">    &lt;path d=&quot;M18,7c0,0.55-0.45,1-1,1H7C6.45,8,6,7.55,6,7l0,0c0-0.55,0.45-1,1-1h10C17.55,6,18,6.45,18,7L18,7z&quot; class=&quot;chat-line chat-line__1&quot;/&gt;</tspan><tspan x="0" y="43.2" font-family="'MyriadPro-Regular'" font-size="12">    &lt;path d=&quot;M6,10c0-0.55,0.45-1,1-1h10c0.55,0,1,0.45,1,1l0,0c0,0.55-0.45,1-1,1H7C6.45,11,6,10.55,6,10L6,10z&quot; class=&quot;chat-line chat-line__2&quot;/&gt;</tspan><tspan x="0" y="57.6" font-family="'MyriadPro-Regular'" font-size="12">    &lt;path d=&quot;M14,13c0,0.55-0.45,1-1,1H7c-0.55,0-1-0.45-1-1l0,0c0-0.55,0.45-1,1-1h6C13.55,12,14,12.45,14,13L14,13z&quot; class=&quot;chat-line chat-line__3&quot;/&gt;</tspan><tspan x="0" y="72" font-family="'MyriadPro-Regular'" font-size="12">    &lt;path d=&quot;M4.004,2h15.992c1.099,0,1.988,0.9,1.988,2l0.01,18l-3.997-4H4.004c-1.099,0-1.999-0.9-1.999-2V4C2.005,2.9,2.905,2,4.004,2z&quot; class=&quot;chat-boubble chat-boubble__2&quot;/&gt;</tspan><tspan x="0" y="86.4" font-family="'MyriadPro-Regular'" font-size="12">    &lt;path d=&quot;M18,7c0,0.55-0.45,1-1,1H7C6.45,8,6,7.55,6,7l0,0c0-0.55,0.45-1,1-1h10C17.55,6,18,6.45,18,7L18,7z&quot; class=&quot;chat-line chat-line__1&quot;/&gt;</tspan><tspan x="0" y="100.8" font-family="'MyriadPro-Regular'" font-size="12">    &lt;path d=&quot;M6,10c0-0.55,0.45-1,1-1h10c0.55,0,1,0.45,1,1l0,0c0,0.55-0.45,1-1,1H7C6.45,11,6,10.55,6,10L6,10z&quot; class=&quot;chat-line chat-line__2&quot;/&gt;</tspan><tspan x="0" y="115.2" font-family="'MyriadPro-Regular'" font-size="12">    &lt;path d=&quot;M14,13c0,0.55-0.45,1-1,1H7c-0.55,0-1-0.45-1-1l0,0c0-0.55,0.45-1,1-1h6C13.55,12,14,12.45,14,13L14,13z&quot; class=&quot;chat-line chat-line__3&quot;/&gt;</tspan><tspan x="0" y="129.6" font-family="'MyriadPro-Regular'" font-size="12">&lt;/svg&gt;</tspan></text>
<g>
	<path d="M18.408,1.833H2.425c-1.098,0-1.987,0.9-1.987,2l-0.01,18l3.995-4h13.985c1.099,0,1.997-0.9,1.997-2v-12
		C20.405,2.733,19.507,1.833,18.408,1.833z"/>
	<g>
		<path fill="#FFFFFF" d="M4.417,9.833c0-0.55,0.45-1,1-1h10c0.55,0,1,0.45,1,1l0,0c0,0.55-0.45,1-1,1h-10
			C4.867,10.833,4.417,10.383,4.417,9.833L4.417,9.833z"/>
	</g>
	<g>
		<path fill="#FFFFFF" d="M12.417,12.833c0,0.55-0.45,1-1,1h-6c-0.55,0-1-0.45-1-1l0,0c0-0.55,0.45-1,1-1h6
			C11.967,11.833,12.417,12.283,12.417,12.833L12.417,12.833z"/>
	</g>
	<g>
		<path fill="#FFFFFF" d="M16.417,6.833c0,0.55-0.45,1-1,1h-10c-0.55,0-1-0.45-1-1l0,0c0-0.55,0.45-1,1-1h10
			C15.967,5.833,16.417,6.283,16.417,6.833L16.417,6.833z"/>
	</g>
</g>
</svg>
