<svg xmlns="http://www.w3.org/2000/svg" xmlns:xlink="http://www.w3.org/1999/xlink" x="0px" y="0px" class="icon" version="1.1" viewBox="0 0 24 24" xml:space="preserve">
    <path d="M20,2H4C2.9,2,2.01,2.9,2.01,4L2,22l4-4h14c1.1,0,2-0.9,2-2V4C22,2.9,21.1,2,20,2z" class="chat-boubble"/>
    <path d="M18,7c0,0.55-0.45,1-1,1H7C6.45,8,6,7.55,6,7l0,0c0-0.55,0.45-1,1-1h10C17.55,6,18,6.45,18,7L18,7z" class="chat-line chat-line__1"/>
    <path d="M6,10c0-0.55,0.45-1,1-1h10c0.55,0,1,0.45,1,1l0,0c0,0.55-0.45,1-1,1H7C6.45,11,6,10.55,6,10L6,10z" class="chat-line chat-line__2"/>
    <path d="M14,13c0,0.55-0.45,1-1,1H7c-0.55,0-1-0.45-1-1l0,0c0-0.55,0.45-1,1-1h6C13.55,12,14,12.45,14,13L14,13z" class="chat-line chat-line__3"/>
    <path d="M4.004,2h15.992c1.099,0,1.988,0.9,1.988,2l0.01,18l-3.997-4H4.004c-1.099,0-1.999-0.9-1.999-2V4C2.005,2.9,2.905,2,4.004,2z" class="chat-boubble chat-boubble__2"/>
    <path d="M18,7c0,0.55-0.45,1-1,1H7C6.45,8,6,7.55,6,7l0,0c0-0.55,0.45-1,1-1h10C17.55,6,18,6.45,18,7L18,7z" class="chat-line chat-line__1"/>
    <path d="M6,10c0-0.55,0.45-1,1-1h10c0.55,0,1,0.45,1,1l0,0c0,0.55-0.45,1-1,1H7C6.45,11,6,10.55,6,10L6,10z" class="chat-line chat-line__2"/>
    <path d="M14,13c0,0.55-0.45,1-1,1H7c-0.55,0-1-0.45-1-1l0,0c0-0.55,0.45-1,1-1h6C13.55,12,14,12.45,14,13L14,13z" class="chat-line chat-line__3"/>
</svg>
