<svg xmlns="http://www.w3.org/2000/svg" xmlns:xlink="http://www.w3.org/1999/xlink" id="Vrstva_1" x="0px" y="0px" enable-background="new 237.143 0 325.714 600" version="1.1" viewBox="237.143 0 325.714 600" xml:space="preserve">
    <rect id="XMLID_5_" width="325.714" height="480" x="237.143" y="60" fill="#E5E5E5"/>
    <path id="XMLID_1_" fill="#231F20" d="M562.857,60H237.143v-8.571C237.143,23.143,260.286,0,288.571,0h222.857
		c28.285,0,51.429,23.143,51.429,51.429V60z"/>
    <path id="XMLID_2_" fill="#231F20" d="M511.429,600H288.571c-28.286,0-51.428-23.143-51.428-51.429V540h325.714v8.571
		C562.857,576.857,539.714,600,511.429,600z"/>
    <rect id="XMLID_3_" width="12" height="480" x="237.143" y="60" fill="#231F20"/>
    <rect id="XMLID_4_" width="12" height="480" x="550.857" y="60" fill="#231F20"/>
    <path id="XMLID_6_" fill="#FFFFFF" d="M510.571,34.286H289.429c-5.143,0-8.572-4.286-8.572-8.571l0,0
		c0-5.143,4.286-8.571,8.572-8.571h221.143c5.143,0,8.571,4.286,8.571,8.571l0,0C519.143,30.857,515.714,34.286,510.571,34.286z"/>
</svg>
