<svg xmlns="http://www.w3.org/2000/svg" xmlns:xlink="http://www.w3.org/1999/xlink" x="0px" y="0px" enable-background="new 171.175 0 464.347 600" version="1.1" viewBox="171.175 0 464.347 600" xml:space="preserve">
    <path d="M587.816,545.449H218.859V54.834h368.948L587.816,545.449L587.816,545.449z M388.731,573.436
	c0-8.06,6.532-14.584,14.597-14.584c8.072,0,14.608,6.528,14.608,14.584c0,8.09-6.532,14.618-14.608,14.618
	C395.271,588.054,388.731,581.518,388.731,573.436 M635.501,23.034h-0.025c0-0.199,0.025-0.385,0.025-0.584
	C635.501,10.05,625.451,0,613.047,0c-0.198,0-0.394,0.017-0.593,0.025V0H194.217v0.025C194.022,0.017,193.832,0,193.629,0
	c-12.404,0-22.454,10.05-22.454,22.454c0,0.199,0.025,0.385,0.029,0.584h-0.029v552.548h0.601c-0.004,0.216-0.042,0.402-0.042,0.61
	c0,12.374,10.029,22.398,22.412,22.398c0.194,0,0.389-0.025,0.584-0.034v0.034h417.238v-0.034c0.199,0.009,0.385,0.034,0.593,0.034
	c12.374,0,22.411-10.024,22.411-22.398c0-0.208-0.034-0.395-0.047-0.61h0.598L635.501,23.034L635.501,23.034z"/>
</svg>
