<svg xmlns="http://www.w3.org/2000/svg" xmlns:xlink="http://www.w3.org/1999/xlink" x="0px" y="0px" class="HandCrafted" enable-background="new 0 20 420 120" version="1.1" viewBox="0 20 420 120" xml:space="preserve">
    <g opacity="0.7">
        <path fill="#F2F2F2" d="M15.723,131.021c-0.298,0.1-0.499,0-0.597-0.299c-0.101-0.298-0.126-0.597-0.075-0.896
		c0.049-0.298,0.198-0.545,0.448-0.746c0.247-0.198,0.571-0.198,0.97,0c-1.294-1.59-2.115-3.033-2.462-4.327
		c-0.35-1.292-1.019-2.884-2.015-4.774c0.298-0.299,0.499-0.721,0.597-1.269c0.101-0.546,0.224-1.068,0.373-1.567
		c0.149-0.496,0.35-0.869,0.597-1.119c0.247-0.247,0.571-0.172,0.97,0.225c-0.2-1.094-0.2-1.989,0-2.687
		c0.198-0.694,0.422-1.343,0.671-1.939c0.248-0.597,0.422-1.194,0.522-1.791c0.098-0.597-0.051-1.292-0.448-2.089
		c1.889-2.586,3.134-5.396,3.73-8.431c0.597-3.033,0.944-5.794,1.044-8.282c0.896-0.896,1.665-2.089,2.313-3.581
		c0.646-1.492,1.119-3.033,1.417-4.626c0.299-1.59,0.448-3.156,0.448-4.7c0-1.541-0.2-2.761-0.597-3.656
		c0.098-0.396,0.322-0.62,0.671-0.671c0.348-0.049,0.77-0.023,1.269,0.074c0.695-3.978,1.168-8.405,1.417-13.28
		c0.247-4.873,0.746-9.573,1.492-14.101c0.746-4.526,1.963-8.506,3.656-11.938c1.69-3.432,4.376-5.645,8.058-6.641
		c0.695,2.488,1.616,4.677,2.76,6.566c1.143,1.891,2.388,3.73,3.73,5.521c1.343,1.791,2.709,3.581,4.104,5.372
		c1.392,1.791,2.686,3.782,3.88,5.969c-0.1,2.29-0.324,4.924-0.671,7.909c-0.35,2.984-0.797,6.02-1.343,9.102
		c-0.548,3.085-1.096,6.069-1.641,8.954c-0.548,2.886-1.07,5.322-1.567,7.312c0.098,0.499,0.448,0.82,1.044,0.97
		s0.695,0.723,0.298,1.716c2.884-0.694,5.894-1.366,9.028-2.015c3.134-0.646,6.216-1.291,9.251-1.939
		c3.034-0.646,6.018-1.418,8.953-2.313c2.933-0.896,5.694-1.989,8.282-3.283c0.597-4.775,1.343-9.499,2.238-14.176
		c0.896-4.675,0.993-9.401,0.298-14.176c0.597-0.497,1.094-1.094,1.492-1.791c0.396-0.695,0.994-1.143,1.791-1.343
		c-0.597-2.287-0.847-4.7-0.746-7.237c0.098-2.537,0.522-4.899,1.268-7.088c0.746-2.187,1.865-4.104,3.357-5.745
		s3.332-2.709,5.521-3.208c1.292,1.891,2.436,3.931,3.432,6.118c0.993,2.189,1.989,4.402,2.984,6.64
		c0.993,2.238,2.063,4.353,3.208,6.342c1.143,1.991,2.611,3.682,4.402,5.074c0.298,3.483,0.545,7.039,0.746,10.669
		c0.198,3.633,0.347,7.387,0.448,11.266c-0.896,4.477-1.917,8.83-3.059,13.057c-1.145,4.229-1.965,8.729-2.462,13.504
		c-0.797,0.896-1.443,1.966-1.94,3.208c-0.499,1.245-0.97,2.488-1.417,3.73c-0.448,1.245-0.97,2.463-1.567,3.656
		c-0.597,1.193-1.343,2.189-2.238,2.984c0.396,1.395,0.471,2.712,0.224,3.954c-0.25,1.245,0.075,2.712,0.97,4.402
		c0.198,3.084-0.175,5.646-1.119,7.685c-0.947,2.04-2.238,3.782-3.88,5.223c-1.642,1.443-3.532,2.588-5.67,3.432
		c-2.14,0.847-4.253,1.618-6.342,2.313c-0.996-0.597-1.917-1.217-2.761-1.865c-0.846-0.646-1.865-1.119-3.059-1.418l0.746-1.343
		c-1.991-1.989-3.708-4.104-5.148-6.342c-1.443-2.238-2.115-4.799-2.014-7.685c0-0.099,0.098-0.77,0.298-2.015
		c0.198-1.243,0.422-2.561,0.671-3.954c0.247-1.393,0.497-2.71,0.746-3.954c0.247-1.243,0.373-1.915,0.373-2.015
		c-2.786,0.298-5.67,0.946-8.655,1.939c-2.984,0.996-5.894,2.115-8.729,3.357c-2.835,1.245-5.472,2.537-7.909,3.88
		c-2.439,1.343-4.402,2.462-5.894,3.357c0,0.299-0.25,1.145-0.746,2.537c-0.499,1.394-1.096,2.86-1.791,4.401
		c-0.697,1.544-1.469,2.91-2.313,4.104c-0.847,1.194-1.716,1.742-2.611,1.642c0.198,0.499,0.396,0.872,0.597,1.119
		c0.198,0.249,0.198,0.723,0,1.418c-1.693,0.499-3.208,1.145-4.551,1.939c-1.343,0.795-2.711,1.467-4.104,2.015
		c-1.394,0.545-2.91,0.795-4.551,0.746c-1.641-0.052-3.607-0.672-5.894-1.865c0-0.695-0.298-1.317-0.896-1.865
		c-0.597-0.546-1.219-1.02-1.865-1.418c-0.648-0.396-1.219-0.746-1.716-1.044C15.97,131.617,15.723,131.318,15.723,131.021z"/>
        <path fill="#F2F2F2" d="M111.754,121.918l1.94-1.492l0.149-3.134c2.485-6.066,5.048-11.886,7.685-17.459
		c2.635-5.569,5.396-11.289,8.282-17.16c0.896-1.888,1.814-3.779,2.761-5.67c0.944-1.889,1.865-3.829,2.76-5.819
		c-0.1-0.396-0.149-0.821-0.149-1.269s0.098-0.97,0.298-1.567c1.392-1.989,2.511-3.779,3.357-5.372
		c0.844-1.59,1.665-3.232,2.462-4.924c0.896-1.989,1.865-3.978,2.91-5.969c1.044-1.989,2.362-3.929,3.954-5.82l1.044-1.492
		l1.642,0.149c0.396-0.198,0.821-0.373,1.268-0.522c0.448-0.149,1.019-0.224,1.716-0.224l2.686,0.448
		c3.283-1.492,6.192-3.656,8.729-6.491c2.537-2.835,5.097-6.242,7.685-10.222l1.791-2.537l2.388,1.492
		c0.497,0.298,1.292,0.597,2.387,0.896c1.094,0.298,2.238,0.648,3.432,1.044c2.089,0.499,4.127,1.07,6.118,1.716
		c1.989,0.648,3.53,1.518,4.625,2.611l0.746,1.343c0.198,1.096,0.373,2.089,0.522,2.984c0.149,0.895,0.322,1.791,0.522,2.686
		c0.396,2.089,0.746,4.155,1.045,6.192c0.298,2.04,0.497,4.304,0.597,6.79c0.497,1.991,0.97,4.005,1.417,6.043
		c0.448,2.04,0.87,4.054,1.269,6.043c0.497,2.886,1.044,5.647,1.641,8.281c0.597,2.637,1.392,5.148,2.388,7.536
		c0.993,0,1.59,0.051,1.791,0.148c1.194-0.496,2.586-0.795,4.178-0.895l1.94-0.149l0.597,1.79c0.198,0.299,0.447,0.598,0.746,0.896
		c0.298,0.299,0.646,0.597,1.044,0.896c1.591,0.101,2.761,0.425,3.507,0.97c0.746,0.548,1.366,1.07,1.865,1.567
		c0.198,0.2,0.447,0.424,0.746,0.671c0.299,0.25,0.546,0.425,0.746,0.522l2.687,1.045l-1.492,2.835
		c-1.097,2.089-2.761,4.129-4.999,6.118c-2.238,1.991-4.752,3.632-7.536,4.924c0.198,0.697,0.322,1.343,0.373,1.94
		c0.049,0.597,0.172,1.294,0.373,2.089c0.396,1.991,0.72,4.055,0.97,6.192c0.247,2.141,0.224,4.353-0.075,6.641
		c-0.996,2.588-2.164,4.9-3.506,6.938c-1.343,2.04-2.936,3.88-4.775,5.521c-1.842,1.642-3.905,2.984-6.192,4.029
		c-2.29,1.045-4.677,1.616-7.163,1.716c-1.394-0.298-2.413-0.648-3.059-1.044c-0.648-0.396-1.219-0.796-1.716-1.194
		c-0.797-0.597-1.443-0.993-1.94-1.193l-1.94-0.896l0.597-2.238c0.298-0.795,0.272-1.492-0.075-2.089
		c-0.35-0.597-1.07-1.393-2.164-2.388c-0.399-0.299-0.746-0.62-1.045-0.97c-0.298-0.348-0.648-0.721-1.044-1.119l-2.984-3.433
		l4.924-1.343c2.984-0.795,4.973-1.813,5.969-3.059c0.993-1.243,1.392-3.456,1.194-6.641c-2.488-0.496-4.528-0.571-6.118-0.224
		c-1.592,0.35-3.185,0.723-4.775,1.119c-2.29,0.597-4.528,1.119-6.715,1.566c-2.189,0.448-4.577,0.672-7.163,0.672
		c-1.693,0-3.483-0.149-5.372-0.447l-1.641-0.149l-0.448-1.642c0-0.198-0.126-0.422-0.373-0.672
		c-0.25-0.247-0.473-0.471-0.671-0.671c-0.499-0.597-1.096-1.393-1.791-2.388c-0.697-0.993-0.847-2.238-0.448-3.73
		c-0.697-1.094-1.096-2.238-1.194-3.433c-0.399,0.798-0.723,1.567-0.97,2.313c-0.25,0.746-0.474,1.469-0.672,2.164l-0.597,1.939
		l-1.94,0.299c-0.2,0.2-0.373,0.498-0.522,0.895c-0.149,0.399-0.175,0.697-0.075,0.896l0.597,1.642l-1.492,1.343
		c-0.2,0.299-0.448,0.548-0.746,0.746c-0.298,0.2-0.548,0.398-0.746,0.597c-0.2,1.096-0.473,2.141-0.821,3.134
		c-0.35,0.996-0.723,1.991-1.119,2.984c-0.499,1.593-0.97,3.134-1.417,4.626s-0.671,2.984-0.671,4.477l-0.597,1.939
		c-0.499,0.798-1.119,1.395-1.865,1.791c-0.746,0.398-1.469,0.746-2.164,1.045c-0.996,0.398-1.692,0.797-2.089,1.193l-0.448,1.939
		l-2.238,0.299c-1.294,0.299-2.215,0.497-2.761,0.597c-0.548,0.098-1.17,0.149-1.865,0.149l-1.939-0.149
		c-1.194-1.193-2.164-2.112-2.91-2.761c-0.746-0.646-1.618-1.217-2.611-1.716l-0.895-1.193c-0.399-0.795-0.646-1.516-0.746-2.164
		c-0.098-0.646-0.247-1.317-0.448-2.015c-0.198-1.291-0.497-2.187-0.896-2.686L111.754,121.918z M159.355,83.121
		c-1.394,1.991-2.737,4.08-4.029,6.267c0.695-0.098,1.366-0.148,2.014-0.148c0.646,0,1.317-0.049,2.015-0.149
		c3.481-0.198,6.715-0.448,9.699-0.746c2.984-0.299,6.216-0.795,9.699-1.492c-0.797-3.68-1.667-7.436-2.611-11.266
		c-0.947-3.829-1.965-7.685-3.059-11.564l-0.746,1.492c-2.488,2.686-4.875,5.572-7.163,8.655c-2.29,3.084-4.178,6.02-5.67,8.804
		L159.355,83.121z"/>
        <path fill="#F2F2F2" d="M244.95,122.067c-0.996,0.797-1.593,1.816-1.791,3.059c-0.2,1.245-0.447,2.462-0.746,3.656
		c-0.298,1.193-0.82,2.215-1.566,3.059c-0.746,0.847-2.065,1.22-3.954,1.119c-0.399,0.499-0.474,0.798-0.225,0.896
		c0.248,0.101,0.472,0.548,0.672,1.343c-1.395-0.198-2.388-0.098-2.984,0.299c-0.597,0.398-1.343,0.694-2.238,0.896
		c-2.289-0.695-4.204-1.964-5.745-3.806c-1.543-1.84-2.887-3.854-4.028-6.043c-1.146-2.188-2.141-4.426-2.984-6.715
		c-0.847-2.287-1.717-4.276-2.611-5.969c0-0.396,0.175-0.571,0.521-0.522c0.351,0.051,0.672,0.074,0.971,0.074
		c-0.497-0.993-0.87-2.112-1.119-3.357c-0.247-1.242-0.721-2.262-1.418-3.059c2.884-6.167,5.969-12.609,9.252-19.324
		c3.282-6.715,6.589-13.527,9.923-20.443c3.332-6.913,6.663-13.877,9.997-20.891c3.332-7.013,6.54-13.901,9.625-20.667
		c2.784,0.996,5.495,2.164,8.133,3.507c2.635,1.343,5.048,2.91,7.237,4.7c2.187,1.791,4.052,3.856,5.596,6.193
		c1.541,2.338,2.56,4.999,3.059,7.983c-0.2,0.597-0.447,0.797-0.746,0.597c-0.299-0.198-0.548-0.098-0.746,0.298
		c0.497,0.597,0.77,1.021,0.82,1.269c0.05,0.25,0.023,0.499-0.074,0.746c-0.101,0.25-0.149,0.573-0.149,0.97
		c0,0.399,0.247,0.947,0.746,1.642c-0.499-0.098-0.846-0.023-1.044,0.224c-0.201,0.25-0.548,0.275-1.045,0.075
		c0.497,1.394,0.646,2.488,0.447,3.283c-0.2,0.797-0.499,1.518-0.895,2.164c-0.399,0.648-0.724,1.343-0.971,2.089
		c-0.249,0.746-0.175,1.767,0.225,3.059c-0.399,0-0.672,0.074-0.821,0.224s-0.275,0.324-0.373,0.522
		c-0.1,0.2-0.224,0.373-0.373,0.522c-0.149,0.149-0.424,0.175-0.82,0.075c0.298,2.588,0.396,5.199,0.298,7.834
		c-0.1,2.637-0.2,5.323-0.298,8.058c-0.101,2.737-0.101,5.547,0,8.431c0.098,2.887,0.496,5.871,1.193,8.953
		c4.276-2.485,7.734-5.719,10.371-9.699c2.635-3.978,4.724-8.404,6.267-13.28c1.542-4.873,2.735-10.095,3.582-15.668
		c0.844-5.57,1.716-11.24,2.611-17.011c1.093-1.094,1.963-2.437,2.611-4.029c0.646-1.59,1.193-3.232,1.641-4.924
		c0.448-1.69,0.896-3.406,1.344-5.148c0.447-1.74,1.067-3.306,1.865-4.701c1.79,0.201,3.306,0.723,4.551,1.567
		c1.243,0.846,2.411,1.791,3.507,2.835c1.094,1.045,2.238,2.015,3.432,2.91c1.194,0.895,2.687,1.492,4.477,1.791
		c1.393,1.991,2.687,3.905,3.88,5.745c1.194,1.842,1.989,3.906,2.388,6.193c-0.597,0.996-1.045,2.089-1.343,3.283
		c-0.299,1.194-0.623,2.388-0.97,3.582c-0.351,1.193-0.821,2.29-1.418,3.283c-0.597,0.996-1.443,1.842-2.537,2.537
		c-0.298,2.984-0.746,5.771-1.343,8.356c-0.597,2.588-1.145,5.125-1.642,7.61c-0.499,2.488-0.946,5.074-1.343,7.759
		c-0.398,2.687-0.548,5.622-0.447,8.804c-0.896,2.887-1.892,5.846-2.984,8.879c-1.096,3.036-1.892,5.846-2.388,8.431
		c-1.891,1.492-3.383,3.334-4.477,5.521c-1.096,2.189-2.238,4.379-3.433,6.565c-0.498,0.398-0.797,0.474-0.895,0.224
		c-0.101-0.247-0.548-0.422-1.344-0.521c0.099,0.895-0.074,1.469-0.521,1.716c-0.448,0.249-0.425,0.97,0.074,2.163
		c-1.692,0.798-3.185,1.842-4.477,3.134c-1.294,1.294-2.712,2.488-4.253,3.581c-1.543,1.097-3.334,1.816-5.372,2.164
		c-2.04,0.35-4.7-0.074-7.982-1.269c-4.876-3.581-9.252-7.708-13.132-12.385c-3.88-4.675-6.964-10.196-9.251-16.563
		c-0.996,0.299-1.742,0.946-2.239,1.939c-0.498,0.996-0.946,2.04-1.343,3.134c-0.398,1.096-0.797,2.089-1.193,2.984
		c-0.398,0.896-0.996,1.343-1.791,1.343c-0.2,0.896-0.573,1.717-1.119,2.463c-0.548,0.746-1.07,1.492-1.566,2.238
		c-0.499,0.746-0.872,1.566-1.119,2.462C244.327,119.979,244.451,120.974,244.95,122.067z"/>
        <path fill="#F2F2F2" d="M337.213,137.735c-2.886-0.697-5.099-1.865-6.64-3.507c-1.544-1.642-2.687-3.581-3.433-5.819
		s-1.245-4.7-1.492-7.387c-0.249-2.686-0.521-5.47-0.82-8.356c0.396-1.291,0.919-2.387,1.566-3.282
		c0.646-0.896,0.919-2.139,0.821-3.73c1.094-3.183,2.089-6.268,2.984-9.252s1.492-6.066,1.79-9.252
		c0.598-0.895,1.194-1.492,1.791-1.79c0.795-5.671,0.896-11.49,0.299-17.459c-0.598-5.969-1.593-11.49-2.984-16.563
		c0.098-1.094,0.247-1.915,0.447-2.462c0.198-0.545,0.198-1.019,0-1.417c-0.2-0.896,0.098-1.343,0.896-1.343c0.795,0,1.59,0,2.388,0
		c0-1.791-0.324-3.556-0.971-5.297c-0.647-1.739-1.268-3.754-1.865-6.043c0.796-1.791,1.344-3.53,1.642-5.223
		c0.299-1.69,0.845-3.231,1.642-4.626c3.183,0.996,6.316,2.141,9.4,3.432c3.083,1.294,6.118,2.563,9.103,3.805
		c2.984,1.245,5.918,2.439,8.805,3.581c2.884,1.145,5.719,2.066,8.505,2.761c4.276,3.084,8.678,6.144,13.206,9.177
		c4.525,3.036,8.654,6.368,12.385,9.998c3.73,3.632,6.839,7.785,9.326,12.459c2.486,4.677,3.929,10.198,4.328,16.563
		c-0.201,0.597-0.35,1.096-0.448,1.492c-0.1,0.398-0.2,0.798-0.298,1.193c-0.101,0.399-0.149,0.847-0.149,1.344
		c0,0.499,0,1.193,0,2.089c-3.581,6.267-8.109,11.541-13.579,15.817c-5.472,4.278-11.44,8.058-17.906,11.341
		c-6.468,3.282-13.206,6.292-20.22,9.027C350.718,131.743,343.877,134.653,337.213,137.735z M351.837,53.128
		c-0.896,0-1.544,0.201-1.94,0.597c1.194,4.477,2.09,8.706,2.687,12.684c0.597,3.98,0.919,7.96,0.97,11.938
		c0.049,3.98-0.175,8.058-0.672,12.236c-0.498,4.178-1.193,8.706-2.089,13.579c1.292-0.099,2.437-0.348,3.433-0.746
		c0.993-0.396,2.014-0.845,3.059-1.343c1.045-0.497,2.138-0.944,3.283-1.344c1.143-0.396,2.462-0.646,3.954-0.746
		c0.396-0.795,0.919-1.417,1.566-1.865c0.646-0.447,1.218-0.918,1.717-1.417c2.485-0.993,4.973-2.038,7.461-3.134
		c2.485-1.094,4.774-2.336,6.863-3.73c2.09-1.392,3.978-2.984,5.671-4.775c1.69-1.79,3.082-3.929,4.178-6.416
		c-0.797-1.492-1.768-2.761-2.909-3.805c-1.146-1.044-2.339-2.089-3.582-3.134c-1.245-1.044-2.438-2.138-3.581-3.283
		c-1.145-1.143-2.065-2.462-2.761-3.954c-1.592-0.198-2.984-0.621-4.178-1.269c-1.193-0.646-2.339-1.292-3.432-1.94
		c-1.097-0.646-2.265-1.268-3.507-1.865c-1.245-0.597-2.712-0.944-4.402-1.044c-2.588-1.392-4.924-2.362-7.014-2.91
		C354.522,54.895,352.931,54.124,351.837,53.128z"/>
    </g>
</svg>
