<svg xmlns="http://www.w3.org/2000/svg" xmlns:xlink="http://www.w3.org/1999/xlink" width="784px" height="331px" x="0px" y="0px" enable-background="new -9 0.75 784 331" version="1.1" viewBox="-9 0.75 784 331" xml:space="preserve">
    <g id="Vrstva_1">
        <g opacity="0.53">
            <path fill="#F2F2F2" d="M19.67,263.942c-0.702,0.235-1.176,0-1.407-0.705c-0.238-0.702-0.296-1.407-0.177-2.111
			c0.115-0.703,0.466-1.284,1.056-1.757c0.582-0.466,1.345-0.466,2.285,0c-3.049-3.747-4.983-7.146-5.8-10.194
			c-0.825-3.044-2.401-6.794-4.747-11.247c0.702-0.705,1.176-1.698,1.407-2.988c0.237-1.286,0.527-2.517,0.878-3.694
			c0.351-1.166,0.825-2.046,1.406-2.636c0.582-0.58,1.345-0.404,2.285,0.532c-0.472-2.578-0.472-4.688,0-6.332
			c0.466-1.635,0.994-3.164,1.581-4.568c0.584-1.407,0.994-2.813,1.23-4.221c0.23-1.404-0.12-3.042-1.056-4.919
			c4.451-6.093,7.384-12.713,8.788-19.864c1.407-7.146,2.225-13.65,2.46-19.514c2.111-2.11,3.923-4.921,5.449-8.436
			c1.522-3.515,2.637-7.146,3.338-10.899c0.705-3.746,1.055-7.435,1.055-11.073c0-3.63-0.472-6.505-1.407-8.613
			c0.231-0.934,0.759-1.461,1.581-1.581c0.82-0.116,1.814-0.055,2.989,0.175c1.638-9.372,2.752-19.802,3.338-31.288
			c0.582-11.481,1.758-22.554,3.516-33.222c1.758-10.664,4.625-20.041,8.613-28.125c3.981-8.086,10.31-13.299,18.984-15.646
			c1.638,5.861,3.808,11.019,6.502,15.469c2.692,4.455,5.626,8.789,8.789,13.008c3.164,4.22,6.382,8.438,9.668,12.657
			c3.28,4.22,6.329,8.911,9.142,14.063c-0.235,5.396-0.763,11.6-1.581,18.634c-0.824,7.031-1.877,14.183-3.164,21.444
			c-1.291,7.268-2.583,14.299-3.867,21.096c-1.292,6.8-2.521,12.54-3.691,17.227c0.231,1.176,1.056,1.932,2.46,2.285
			s1.637,1.703,0.702,4.043c6.794-1.637,13.887-3.219,21.271-4.748c7.384-1.521,14.644-3.041,21.795-4.567
			c7.149-1.522,14.18-3.341,21.095-5.449c6.91-2.111,13.415-4.687,19.512-7.735c1.407-11.25,3.165-22.38,5.273-33.399
			c2.11-11.014,2.339-22.148,0.702-33.399c1.407-1.171,2.577-2.577,3.515-4.22c0.933-1.637,2.341-2.692,4.22-3.164
			c-1.407-5.388-1.996-11.074-1.758-17.05c0.231-5.978,1.23-11.542,2.987-16.7c1.757-5.153,4.394-9.668,7.909-13.535
			s7.851-6.382,13.008-7.558c3.043,4.455,5.739,9.262,8.086,14.414c2.339,5.157,4.687,10.371,7.03,15.644
			c2.34,5.273,4.861,10.256,7.558,14.942c2.693,4.691,6.151,8.676,10.371,11.955c0.702,8.206,1.284,16.583,1.757,25.136
			c0.467,8.56,0.818,17.403,1.056,26.542c-2.111,10.548-4.516,20.804-7.207,30.764c-2.697,9.963-4.629,20.565-5.8,31.814
			c-1.878,2.112-3.4,4.632-4.571,7.559c-1.176,2.933-2.285,5.861-3.338,8.788c-1.056,2.933-2.285,5.802-3.691,8.613
			c-1.407,2.81-3.165,5.157-5.273,7.03c0.933,3.287,1.11,6.39,0.527,9.315c-0.59,2.934,0.177,6.391,2.285,10.371
			c0.467,7.266-0.413,13.302-2.636,18.105c-2.231,4.807-5.273,8.911-9.142,12.306c-3.869,3.398-8.322,6.098-13.358,8.085
			c-5.041,1.998-10.02,3.813-14.941,5.45c-2.347-1.407-4.516-2.867-6.505-4.395c-1.993-1.522-4.395-2.636-7.207-3.341l1.758-3.165
			c-4.691-4.686-8.736-9.669-12.129-14.941c-3.399-5.273-4.983-11.307-4.745-18.105c0-0.234,0.231-1.814,0.702-4.749
			c0.466-2.929,0.994-6.033,1.581-9.314c0.582-3.282,1.17-6.386,1.758-9.316c0.582-2.928,0.878-4.512,0.878-4.748
			c-6.563,0.703-13.358,2.229-20.392,4.569c-7.031,2.346-13.887,4.983-20.566,7.908c-6.679,2.934-12.893,5.978-18.634,9.141
			c-5.746,3.164-10.371,5.801-13.886,7.909c0,0.705-0.59,2.698-1.758,5.978c-1.176,3.283-2.583,6.737-4.22,10.367
			c-1.642,3.638-3.461,6.857-5.449,9.67c-1.996,2.812-4.043,4.104-6.152,3.868c0.466,1.175,0.934,2.054,1.407,2.636
			c0.467,0.587,0.467,1.704,0,3.341c-3.988,1.176-7.558,2.697-10.722,4.569c-3.164,1.873-6.388,3.456-9.669,4.748
			c-3.285,1.284-6.856,1.874-10.722,1.759c-3.867-0.124-8.499-1.585-13.887-4.396c0-1.638-0.702-3.103-2.111-4.395
			c-1.407-1.287-2.872-2.403-4.395-3.342c-1.527-0.933-2.871-1.757-4.043-2.459C20.252,265.347,19.67,264.644,19.67,263.942z"/>
            <path fill="#F2F2F2" d="M245.92,252.633l3.327-2.56l0.256-5.376c4.262-10.404,8.658-20.387,13.182-29.945
			c4.52-9.551,9.254-19.361,14.205-29.432c1.536-3.237,3.111-6.482,4.735-9.725c1.619-3.241,3.199-6.568,4.733-9.98
			c-0.171-0.68-0.256-1.408-0.256-2.178c0-0.769,0.168-1.662,0.511-2.688c2.387-3.411,4.307-6.482,5.758-9.215
			c1.447-2.727,2.856-5.543,4.223-8.445c1.536-3.411,3.198-6.823,4.99-10.238c1.792-3.411,4.051-6.739,6.783-9.981l1.79-2.559
			l2.817,0.256c0.679-0.34,1.408-0.64,2.174-0.895c0.768-0.257,1.749-0.385,2.943-0.385l4.607,0.768
			c5.631-2.559,10.621-6.271,14.972-11.135c4.351-4.862,8.742-10.705,13.182-17.532l3.072-4.351l4.096,2.559
			c0.852,0.511,2.216,1.023,4.093,1.536c1.877,0.512,3.839,1.113,5.887,1.792c3.583,0.856,7.079,1.835,10.493,2.944
			c3.411,1.11,6.055,2.603,7.933,4.479l1.28,2.302c0.34,1.88,0.64,3.583,0.896,5.118c0.254,1.537,0.552,3.073,0.895,4.607
			c0.679,3.583,1.28,7.126,1.792,10.621c0.513,3.499,0.852,7.382,1.024,11.646c0.852,3.416,1.663,6.869,2.429,10.365
			c0.77,3.499,1.493,6.952,2.178,10.365c0.852,4.95,1.791,9.685,2.815,14.203c1.023,4.523,2.386,8.83,4.096,12.927
			c1.702,0,2.727,0.086,3.071,0.253c2.048-0.851,4.436-1.363,7.166-1.535l3.328-0.255l1.021,3.069
			c0.34,0.514,0.769,1.024,1.281,1.536c0.51,0.514,1.106,1.024,1.789,1.537c2.73,0.175,4.739,0.729,6.017,1.665
			c1.28,0.938,2.344,1.834,3.199,2.687c0.339,0.343,0.767,0.729,1.279,1.152c0.513,0.43,0.938,0.728,1.279,0.894l4.609,1.794
			l-2.56,4.861c-1.881,3.583-4.736,7.082-8.572,10.493c-3.84,3.415-8.152,6.229-12.927,8.445c0.339,1.195,0.551,2.303,0.641,3.326
			c0.084,1.024,0.293,2.22,0.638,3.583c0.68,3.415,1.237,6.956,1.664,10.621c0.426,3.672,0.385,7.466-0.128,11.39
			c-1.709,4.439-3.711,8.404-6.014,11.901c-2.302,3.499-5.036,6.654-8.189,9.469c-3.16,2.816-6.699,5.119-10.62,6.911
			c-3.93,1.79-8.023,2.771-12.286,2.942c-2.392-0.511-4.139-1.111-5.247-1.79c-1.11-0.681-2.09-1.366-2.943-2.049
			c-1.367-1.023-2.475-1.703-3.327-2.045l-3.327-1.537l1.024-3.839c0.51-1.363,0.466-2.561-0.129-3.584
			c-0.602-1.023-1.835-2.39-3.712-4.096c-0.685-0.513-1.279-1.063-1.792-1.664c-0.512-0.598-1.112-1.237-1.792-1.919l-5.118-5.889
			l8.446-2.304c5.118-1.361,8.529-3.108,10.238-5.245c1.703-2.134,2.388-5.928,2.047-11.392c-4.268-0.851-7.767-0.979-10.494-0.384
			c-2.73,0.601-5.463,1.239-8.19,1.92c-3.928,1.022-7.767,1.919-11.518,2.685c-3.755,0.768-7.851,1.155-12.285,1.155
			c-2.904,0-5.974-0.257-9.214-0.769l-2.814-0.256l-0.768-2.815c0-0.341-0.216-0.725-0.64-1.155
			c-0.43-0.422-0.811-0.807-1.151-1.149c-0.856-1.024-1.88-2.389-3.072-4.097c-1.196-1.703-1.454-3.838-0.769-6.397
			c-1.196-1.875-1.88-3.838-2.048-5.888c-0.684,1.37-1.24,2.688-1.663,3.969c-0.429,1.279-0.813,2.519-1.152,3.71l-1.024,3.327
			l-3.327,0.513c-0.343,0.344-0.639,0.854-0.896,1.535c-0.256,0.686-0.299,1.195-0.129,1.538l1.024,2.814l-2.559,2.303
			c-0.343,0.513-0.769,0.94-1.28,1.28c-0.511,0.342-0.94,0.683-1.278,1.024c-0.343,1.879-0.812,3.671-1.409,5.374
			c-0.6,1.708-1.239,3.415-1.92,5.118c-0.854,2.731-1.663,5.374-2.429,7.935c-0.766,2.56-1.15,5.118-1.15,7.679l-1.024,3.326
			c-0.855,1.368-1.919,2.394-3.198,3.073c-1.279,0.683-2.52,1.278-3.712,1.791c-1.709,0.683-2.903,1.367-3.583,2.046l-0.768,3.327
			l-3.839,0.513c-2.22,0.513-3.798,0.852-4.735,1.022c-0.94,0.169-2.006,0.257-3.199,0.257l-3.326-0.257
			c-2.047-2.046-3.711-3.623-4.991-4.734c-1.279-1.108-2.775-2.087-4.479-2.944l-1.535-2.046c-0.685-1.363-1.108-2.6-1.28-3.711
			c-0.168-1.109-0.423-2.26-0.768-3.456c-0.341-2.216-0.854-3.753-1.538-4.607L245.92,252.633z M327.566,186.089
			c-2.391,3.412-4.695,6.997-6.911,10.748c1.191-0.168,2.342-0.253,3.454-0.253c1.108,0,2.26-0.085,3.457-0.257
			c5.971-0.341,11.517-0.768,16.636-1.279c5.118-0.513,10.661-1.364,16.635-2.56c-1.367-6.312-2.859-12.753-4.478-19.322
			c-1.625-6.568-3.371-13.183-5.248-19.835l-1.279,2.559c-4.268,4.606-8.362,9.556-12.286,14.844
			c-3.928,5.291-7.165,10.325-9.725,15.1L327.566,186.089z"/>
            <path fill="#F2F2F2" d="M474.375,252.888c-1.707,1.367-2.731,3.114-3.07,5.247c-0.345,2.136-0.768,4.222-1.279,6.271
			c-0.512,2.047-1.405,3.799-2.687,5.246c-1.278,1.454-3.543,2.094-6.78,1.92c-0.688,0.855-0.813,1.368-0.388,1.537
			c0.427,0.174,0.809,0.938,1.152,2.303c-2.393-0.339-4.095-0.168-5.117,0.513c-1.024,0.684-2.304,1.191-3.839,1.537
			c-3.926-1.192-7.21-3.368-9.853-6.527c-2.647-3.157-4.951-6.609-6.908-10.365c-1.966-3.753-3.672-7.591-5.118-11.518
			c-1.452-3.922-2.946-7.332-4.48-10.236c0-0.68,0.302-0.979,0.896-0.896c0.602,0.088,1.151,0.127,1.664,0.127
			c-0.853-1.703-1.491-3.622-1.918-5.757c-0.422-2.132-1.237-3.88-2.433-5.247c4.946-10.578,10.239-21.628,15.869-33.145
			c5.629-11.518,11.303-23.203,17.021-35.064c5.716-11.857,11.428-23.802,17.146-35.832c5.715-12.029,11.219-23.844,16.508-35.447
			c4.774,1.708,9.427,3.711,13.951,6.014c4.519,2.304,8.658,4.992,12.412,8.062c3.754,3.072,6.953,6.614,9.6,10.623
			c2.643,4.011,4.391,8.575,5.248,13.693c-0.344,1.024-0.769,1.367-1.28,1.024c-0.513-0.339-0.938-0.168-1.279,0.511
			c0.853,1.024,1.319,1.751,1.405,2.177c0.086,0.429,0.041,0.856-0.127,1.28c-0.174,0.429-0.255,0.983-0.255,1.664
			c0,0.684,0.422,1.625,1.279,2.816c-0.856-0.168-1.45-0.04-1.791,0.385c-0.346,0.429-0.94,0.472-1.793,0.128
			c0.853,2.391,1.109,4.267,0.769,5.631c-0.343,1.367-0.856,2.603-1.537,3.711c-0.683,1.112-1.241,2.304-1.664,3.583
			c-0.429,1.279-0.302,3.03,0.385,5.247c-0.685,0-1.153,0.126-1.409,0.384c-0.255,0.258-0.47,0.557-0.639,0.896
			c-0.172,0.342-0.384,0.639-0.639,0.896c-0.256,0.255-0.728,0.3-1.408,0.129c0.51,4.439,0.681,8.915,0.51,13.437
			c-0.17,4.523-0.341,9.13-0.51,13.82c-0.173,4.694-0.173,9.514,0,14.462c0.169,4.952,0.85,10.069,2.047,15.355
			c7.335-4.262,13.265-9.809,17.787-16.635c4.521-6.824,8.104-14.415,10.749-22.778c2.646-8.359,4.693-17.315,6.146-26.873
			c1.445-9.554,2.942-19.279,4.477-29.178c1.875-1.876,3.367-4.18,4.478-6.91c1.107-2.727,2.047-5.542,2.815-8.445
			c0.769-2.899,1.535-5.842,2.305-8.83c0.768-2.985,1.83-5.67,3.198-8.063c3.07,0.344,5.67,1.24,7.805,2.687
			c2.134,1.451,4.138,3.072,6.018,4.863c1.875,1.792,3.838,3.456,5.884,4.991c2.05,1.535,4.609,2.559,7.679,3.072
			c2.392,3.415,4.609,6.697,6.658,9.854c2.045,3.16,3.41,6.699,4.095,10.622c-1.023,1.709-1.792,3.583-2.303,5.632
			c-0.514,2.047-1.068,4.096-1.664,6.144c-0.603,2.046-1.408,3.928-2.433,5.631c-1.024,1.709-2.474,3.16-4.353,4.351
			c-0.511,5.117-1.278,9.898-2.302,14.332c-1.024,4.438-1.965,8.79-2.817,13.052c-0.854,4.267-1.622,8.703-2.303,13.308
			c-0.684,4.607-0.941,9.643-0.769,15.1c-1.537,4.953-3.243,10.028-5.116,15.229c-1.882,5.209-3.247,10.027-4.096,14.462
			c-3.243,2.559-5.805,5.719-7.68,9.468c-1.882,3.756-3.838,7.512-5.888,11.261c-0.854,0.684-1.366,0.813-1.535,0.385
			c-0.174-0.423-0.938-0.724-2.304-0.894c0.167,1.535-0.127,2.521-0.896,2.943c-0.767,0.426-0.728,1.664,0.127,3.709
			c-2.9,1.37-5.461,3.16-7.679,5.375c-2.219,2.22-4.652,4.268-7.294,6.142c-2.646,1.882-5.718,3.117-9.215,3.713
			c-3.499,0.601-8.06-0.126-13.688-2.177c-8.364-6.143-15.871-13.22-22.526-21.241c-6.654-8.019-11.945-17.49-15.867-28.409
			c-1.708,0.513-2.985,1.623-3.839,3.325c-0.854,1.71-1.624,3.499-2.305,5.377c-0.682,1.879-1.365,3.582-2.045,5.117
			c-0.684,1.537-1.709,2.304-3.072,2.304c-0.343,1.537-0.983,2.944-1.918,4.225c-0.941,1.278-1.836,2.557-2.688,3.838
			c-0.854,1.279-1.496,2.687-1.919,4.224C473.307,249.307,473.521,251.011,474.375,252.888z"/>
            <path fill="#F2F2F2" d="M632.626,279.761c-4.95-1.196-8.746-3.199-11.39-6.014c-2.648-2.817-4.609-6.143-5.887-9.981
			c-1.28-3.838-2.137-8.062-2.559-12.669c-0.429-4.608-0.896-9.385-1.408-14.332c0.68-2.217,1.575-4.097,2.687-5.632
			c1.106-1.534,1.575-3.668,1.41-6.396c1.875-5.459,3.58-10.75,5.115-15.868c1.536-5.117,2.561-10.403,3.071-15.869
			c1.026-1.536,2.047-2.559,3.072-3.069c1.364-9.729,1.537-19.708,0.513-29.946c-1.025-10.237-2.732-19.708-5.12-28.409
			c0.168-1.876,0.425-3.284,0.769-4.222c0.34-0.935,0.34-1.749,0-2.431c-0.343-1.537,0.169-2.304,1.538-2.304
			c1.361,0,2.726,0,4.095,0c0-3.071-0.556-6.1-1.666-9.085c-1.109-2.983-2.174-6.438-3.198-10.365
			c1.365-3.072,2.306-6.055,2.816-8.958c0.512-2.898,1.447-5.542,2.816-7.934c5.457,1.709,10.832,3.671,16.121,5.886
			c5.287,2.22,10.493,4.396,15.611,6.526c5.119,2.136,10.15,4.184,15.103,6.142c4.946,1.964,9.809,3.543,14.588,4.735
			c7.336,5.291,14.886,10.539,22.652,15.742c7.761,5.207,14.842,10.922,21.24,17.147c6.398,6.231,11.73,13.354,15.998,21.37
			c4.263,8.021,6.738,17.492,7.423,28.409c-0.346,1.024-0.603,1.881-0.771,2.56c-0.171,0.682-0.34,1.369-0.511,2.046
			c-0.174,0.685-0.255,1.453-0.255,2.306c0,0.855,0,2.046,0,3.582c-6.142,10.75-13.91,19.796-23.29,27.13
			c-9.386,7.337-19.622,13.821-30.712,19.452c-11.094,5.629-22.651,10.791-34.682,15.482
			C655.789,269.483,644.055,274.475,632.626,279.761z M657.707,134.644c-1.537,0-2.647,0.346-3.326,1.024
			c2.048,7.679,3.583,14.933,4.607,21.755c1.025,6.827,1.577,13.653,1.665,20.476c0.084,6.826-0.3,13.821-1.152,20.988
			c-0.854,7.166-2.046,14.932-3.583,23.289c2.217-0.17,4.18-0.596,5.887-1.278c1.703-0.68,3.454-1.449,5.247-2.304
			c1.792-0.852,3.666-1.618,5.632-2.306c1.959-0.679,4.223-1.106,6.782-1.278c0.68-1.362,1.578-2.431,2.687-3.199
			c1.108-0.768,2.089-1.575,2.944-2.431c4.262-1.704,8.529-3.495,12.798-5.375c4.262-1.876,8.187-4.005,11.771-6.396
			c3.587-2.389,6.823-5.119,9.727-8.19c2.898-3.071,5.288-6.739,7.166-11.005c-1.367-2.559-3.034-4.735-4.989-6.526
			c-1.967-1.791-4.011-3.582-6.143-5.375c-2.138-1.791-4.183-3.667-6.144-5.631c-1.963-1.961-3.542-4.224-4.735-6.782
			c-2.731-0.339-5.118-1.065-7.166-2.177c-2.046-1.107-4.012-2.216-5.886-3.327c-1.882-1.107-3.885-2.174-6.017-3.198
			c-2.135-1.024-4.65-1.62-7.55-1.792c-4.438-2.388-8.444-4.051-12.03-4.991C662.313,137.675,659.584,136.352,657.707,134.644z"/>
        </g>
        <g>
            <g>
                <g>
                    <path fill="#5F0263" d="M493.607,275.595c0.435,0.486,0.648,1.055,0.648,1.703c0,0.865-0.459,1.623-1.379,2.271
					c-0.486,0.325-1,0.488-1.541,0.488c-0.812,0-1.597-0.406-2.353-1.219c-1.623-1.785-3.406-3.123-5.354-4.017
					c-1.949-0.894-4.111-1.338-6.492-1.338c-2.976,0-5.623,0.718-7.947,2.149c-2.328,1.433-4.125,3.447-5.395,6.043
					c-1.271,2.596-1.906,5.517-1.906,8.761c0,3.192,0.676,6.071,2.029,8.642c1.352,2.567,3.243,4.584,5.678,6.041
					c2.436,1.459,5.221,2.191,8.354,2.191c4.326,0,7.814-1.161,10.466-3.486c0.7-0.598,1.434-0.895,2.19-0.895
					c0.648,0,1.242,0.217,1.785,0.648c0.758,0.65,1.137,1.381,1.137,2.191c0,0.704-0.272,1.299-0.811,1.785
					c-3.896,3.625-8.816,5.436-14.767,5.436c-4.219,0-8.004-0.986-11.356-2.961c-3.354-1.973-5.99-4.678-7.91-8.109
					c-1.92-3.437-2.879-7.263-2.879-11.479c0-4.326,0.916-8.205,2.756-11.642c1.84-3.434,4.381-6.123,7.625-8.071
					c3.244-1.947,6.896-2.919,10.951-2.919C483.898,267.806,489.391,270.402,493.607,275.595z"/>
                    <path fill="#5F0263" d="M531.936,268.617c1.322,0.597,1.986,1.435,1.986,2.513c0,0.326-0.029,0.568-0.08,0.731
					c-0.217,0.758-0.556,1.271-1.017,1.542c-0.459,0.271-1.094,0.406-1.905,0.406c-0.484,0-1.324-0.055-2.513-0.163
					c-0.436-0.054-1.082-0.08-1.948-0.08c-4.056,0-7.369,1.081-9.937,3.244c-2.565,2.162-3.854,4.976-3.854,8.435v24.256
					c0,0.976-0.271,1.73-0.812,2.272c-0.543,0.541-1.301,0.812-2.274,0.812c-0.972,0-1.729-0.271-2.271-0.812
					c-0.539-0.54-0.811-1.298-0.811-2.272v-38.207c0-0.976,0.271-1.729,0.811-2.272c0.541-0.539,1.301-0.812,2.271-0.812
					c0.975,0,1.729,0.271,2.274,0.812c0.539,0.542,0.812,1.298,0.812,2.272v3.568c1.567-2.271,3.567-4.027,6.004-5.273
					c2.432-1.24,5.057-1.864,7.867-1.864C528.813,267.726,530.609,268.023,531.936,268.617z"/>
                    <path fill="#5F0263" d="M572.09,270.767c3.434,1.975,6.137,4.691,8.11,8.152c1.974,3.463,2.961,7.299,2.961,11.521v19.063
					c0,0.864-0.297,1.597-0.893,2.19c-0.596,0.597-1.354,0.894-2.271,0.894c-0.921,0-1.679-0.283-2.273-0.854
					c-0.596-0.568-0.893-1.311-0.893-2.229v-4.867c-1.894,2.594-4.3,4.638-7.22,6.123c-2.918,1.488-6.137,2.23-9.651,2.23
					c-4.109,0-7.828-0.986-11.154-2.961c-3.324-1.973-5.949-4.678-7.869-8.109c-1.92-3.437-2.879-7.263-2.879-11.479
					c0-4.22,0.986-8.058,2.961-11.521c1.975-3.461,4.676-6.179,8.111-8.152c3.434-1.975,7.26-2.961,11.479-2.961
					C564.826,267.808,568.656,268.794,572.09,270.767z M568.969,305.12c2.486-1.46,4.445-3.474,5.879-6.041
					c1.434-2.568,2.152-5.449,2.152-8.642c0-3.19-0.72-6.071-2.152-8.64c-1.433-2.569-3.393-4.596-5.879-6.084
					c-2.488-1.487-5.273-2.231-8.355-2.231s-5.881,0.744-8.396,2.231c-2.514,1.486-4.49,3.516-5.922,6.084
					c-1.435,2.567-2.148,5.449-2.148,8.64c0,3.192,0.715,6.071,2.148,8.642c1.432,2.567,3.406,4.584,5.922,6.041
					c2.514,1.461,5.313,2.191,8.396,2.191C563.695,307.312,566.48,306.581,568.969,305.12z"/>
                    <path fill="#5F0263" d="M606.809,258.478c-1.813,2.379-2.719,5.542-2.719,9.49v1.865h9.733c0.863,0,1.556,0.26,2.068,0.771
					c0.514,0.517,0.77,1.177,0.77,1.987c0,0.76-0.258,1.395-0.77,1.906c-0.516,0.517-1.205,0.771-2.068,0.771h-9.733v34.151
					c0,0.975-0.283,1.742-0.853,2.313c-0.567,0.568-1.367,0.852-2.393,0.852c-0.867,0-1.582-0.283-2.15-0.852
					c-0.565-0.568-0.85-1.338-0.85-2.313v-34.151h-5.193c-0.865,0-1.555-0.257-2.067-0.771c-0.515-0.513-0.771-1.148-0.771-1.906
					c0-0.812,0.256-1.474,0.771-1.987c0.516-0.513,1.202-0.771,2.067-0.771h5.193v-1.541c0-5.785,1.484-10.408,4.461-13.871
					c2.975-3.461,7.164-5.191,12.572-5.191c0.918,0,1.676,0.271,2.271,0.813s0.896,1.217,0.896,2.027s-0.299,1.487-0.896,2.029
					c-0.596,0.541-1.352,0.812-2.271,0.812C611.309,254.908,608.62,256.099,606.809,258.478z"/>
                    <path fill="#5F0263" d="M646.678,307.229c0.537,0.598,0.811,1.354,0.811,2.273c0,0.864-0.323,1.597-0.973,2.19
					c-0.648,0.597-1.461,0.894-2.435,0.894h-1.704c-2.867,0-5.437-0.689-7.705-2.069c-2.27-1.38-4.043-3.244-5.313-5.599
					c-1.271-2.353-1.906-5.015-1.906-7.99v-21.657h-5.272c-0.865,0-1.556-0.256-2.068-0.771c-0.514-0.513-0.77-1.148-0.77-1.906
					c0-0.812,0.256-1.473,0.77-1.987c0.517-0.513,1.203-0.771,2.068-0.771h5.272v-12.571c0-0.918,0.283-1.677,0.853-2.273
					c0.567-0.595,1.311-0.892,2.229-0.892c0.918,0,1.677,0.297,2.273,0.892c0.594,0.599,0.891,1.354,0.891,2.273v12.571h9.168
					c0.863,0,1.556,0.26,2.066,0.771c0.516,0.517,0.771,1.177,0.771,1.987c0,0.759-0.258,1.395-0.771,1.906
					c-0.512,0.515-1.203,0.771-2.066,0.771h-9.168v21.657c0,2.758,0.813,5.019,2.435,6.773c1.623,1.758,3.705,2.637,6.246,2.637
					h2.19C645.434,306.337,646.137,306.634,646.678,307.229z"/>
                    <path fill="#5F0263" d="M687.158,270.604c3.082,1.868,5.474,4.45,7.181,7.748c1.703,3.301,2.555,7.058,2.555,11.276
					c0,0.864-0.271,1.556-0.813,2.067c-0.541,0.515-1.244,0.771-2.111,0.771h-32.771c0.433,4.435,2.162,8.029,5.191,10.789
					c3.027,2.758,6.813,4.138,11.356,4.138c1.947,0,3.906-0.337,5.882-1.013c1.973-0.679,3.555-1.527,4.743-2.556
					c0.701-0.54,1.433-0.812,2.191-0.812c0.596,0,1.189,0.214,1.783,0.647c0.703,0.648,1.057,1.38,1.057,2.191
					c0,0.702-0.299,1.323-0.893,1.866c-1.787,1.514-4.058,2.771-6.816,3.771c-2.756,1-5.406,1.5-7.947,1.5
					c-4.327,0-8.192-0.959-11.602-2.881c-3.406-1.919-6.072-4.596-7.992-8.03c-1.918-3.434-2.877-7.313-2.877-11.64
					c0-4.381,0.904-8.287,2.717-11.721c1.812-3.437,4.326-6.111,7.543-8.031c3.218-1.919,6.884-2.881,10.992-2.881
					C680.531,267.806,684.072,268.739,687.158,270.604z M666.309,277.216c-2.705,2.541-4.352,5.896-4.947,10.058h29.689
					c-0.435-4.162-1.947-7.517-4.543-10.058c-2.595-2.541-5.922-3.813-9.978-3.813C672.42,273.403,669.012,274.675,666.309,277.216z
					"/>
                    <path fill="#5F0263" d="M748.563,271.296v19.063c0,4.219-0.986,8.061-2.961,11.52c-1.975,3.463-4.678,6.182-8.111,8.153
					c-3.434,1.974-7.26,2.961-11.479,2.961s-8.045-0.987-11.479-2.961c-3.434-1.973-6.137-4.69-8.108-8.153
					c-1.978-3.459-2.961-7.299-2.961-11.52s0.959-8.044,2.879-11.479c1.918-3.434,4.543-6.137,7.867-8.11
					c3.325-1.974,7.045-2.961,11.153-2.961c3.517,0,6.734,0.743,9.652,2.231c2.92,1.486,5.326,3.528,7.221,6.121v-23.766
					c0-0.919,0.297-1.678,0.892-2.274c0.596-0.595,1.352-0.892,2.272-0.892c0.918,0,1.662,0.297,2.23,0.892
					c0.567,0.599,0.852,1.354,0.852,2.274v18.17C748.535,270.727,748.563,270.97,748.563,271.296z M734.367,305.081
					c2.486-1.486,4.447-3.515,5.88-6.084c1.434-2.568,2.151-5.449,2.151-8.641c0-0.918-0.028-1.594-0.082-2.028
					c-0.055-0.108-0.08-0.243-0.08-0.405c-0.543-4.219-2.313-7.681-5.313-10.385c-3-2.703-6.64-4.056-10.91-4.056
					c-3.082,0-5.879,0.729-8.396,2.19c-2.512,1.461-4.489,3.475-5.922,6.043c-1.434,2.569-2.147,5.449-2.147,8.641
					s0.715,6.07,2.147,8.64c1.433,2.57,3.408,4.597,5.922,6.085c2.517,1.486,5.313,2.23,8.396,2.23
					C729.098,307.312,731.881,306.567,734.367,305.081z"/>
                </g>
            </g>
        </g>
    </g>
    <g id="Vrstva_2">
        <g opacity="0.61">
            <path fill="#FFFFFF" d="M-0.195,309.586c17.335-6.291,35.687-9.212,53.94-11.19c18.297-1.932,36.675-2.772,55.032-3.2
			c18.361-0.355,36.713-0.261,55.045-0.021c18.331,0.31,36.643,0.775,54.938,1.199c18.294,0.438,36.583,0.6,54.839,0.611
			c18.256,0.034,36.471,0.235,54.663,0.365c36.396,0.2,72.668-0.16,108.94-5.398l0.32,1.26
			c-17.37,6.301-35.636,10.017-53.921,12.586c-18.312,2.594-36.753,3.906-55.163,4.552c-18.416,0.626-36.816,0.366-55.158-0.499
			c-18.343-0.894-36.641-2.091-54.929-3.085c-18.287-1.008-36.554-2.058-54.815-2.95c-18.257-0.954-36.511-1.761-54.761-2.12
			c-18.247-0.403-36.504-0.396-54.699,0.692c-9.095,0.553-18.172,1.389-27.182,2.701c-9.01,1.292-17.966,3.05-26.681,5.729
			L-0.195,309.586z"/>
        </g>
    </g>
</svg>
